<?xml version="1.0" standalone="no"?>
<!DOCTYPE svg PUBLIC "-//W3C//DTD SVG 1.1//EN" "http://www.w3.org/Graphics/SVG/1.1/DTD/svg11.dtd" >
<svg xmlns="http://www.w3.org/2000/svg">
<metadata></metadata>
<defs>
<font id="avenir_nextmedium" horiz-adv-x="1218" >
<font-face units-per-em="2048" ascent="1638" descent="-410" />
<missing-glyph horiz-adv-x="512" />
<glyph unicode="&#xfb01;" horiz-adv-x="1175" d="M12 813v158h193v203q0 86 19.5 158.5t63.5 125.5t112.5 84t166.5 31q70 0 121 -14l-22 -166q-23 6 -45.5 10t-51.5 4q-55 0 -89 -19.5t-52 -52t-24.5 -74.5t-6.5 -87v-203h226v-158h-226v-813h-192v813h-193zM782 1321q0 53 37 89t90 36t91 -36t38 -89t-37.5 -88 t-91.5 -35q-53 0 -90 36t-37 87zM813 0v971h193v-971h-193z" />
<glyph unicode="&#xfb02;" horiz-adv-x="1175" d="M12 813v158h193v203q0 86 19.5 158.5t63.5 125.5t112.5 84t166.5 31q70 0 121 -14l-22 -166q-23 6 -45.5 10t-51.5 4q-55 0 -89 -19.5t-52 -52t-24.5 -74.5t-6.5 -87v-203h226v-158h-226v-813h-192v813h-193zM813 0v1548h193v-1548h-193z" />
<glyph horiz-adv-x="1024" />
<glyph horiz-adv-x="1024" />
<glyph unicode="&#xd;" horiz-adv-x="0" />
<glyph unicode=" "  horiz-adv-x="512" />
<glyph unicode="&#x09;" horiz-adv-x="512" />
<glyph unicode="&#xa0;" horiz-adv-x="512" />
<glyph unicode="!" horiz-adv-x="684" d="M205 121q0 55 39 95t98 40t98 -39t39 -94q0 -53 -39 -94t-98 -41q-57 0 -97 40t-40 93zM240 424v1026h202v-1026h-202z" />
<glyph unicode="&#x22;" horiz-adv-x="866" d="M184 938v512h168v-512h-168zM514 938v512h168v-512h-168z" />
<glyph unicode="#" horiz-adv-x="1175" d="M84 432v150h217l39 288h-201v150h223l60 430h153l-61 -430h242l59 430h154l-62 -430h185v-150h-205l-41 -288h190v-150h-209l-61 -432h-154l62 432h-242l-61 -432h-152l62 432h-197zM453 582h241l39 288h-239z" />
<glyph unicode="$" d="M84 180l149 127q27 -39 66 -69.5t80 -52t83 -33t79 -11.5v521q-80 23 -155 54.5t-131 79.5t-91 115.5t-35 163.5q0 90 34 162t90 122t131 79.5t157 34.5v143h104v-141q106 -2 216 -40t188 -116l-140 -129q-47 59 -119.5 90t-144.5 33v-488q78 -27 155 -59.5t137 -82.5 t97 -122t37 -172q0 -96 -33.5 -172t-92 -129t-136.5 -80.5t-164 -30.5v-147h-104v147q-137 4 -254 56.5t-203 146.5zM324 1087q0 -98 60 -150t157 -81v457q-90 -6 -153.5 -64.5t-63.5 -161.5zM645 141q45 2 86 18.5t73 46.5t51 75t19 106q0 98 -65.5 155.5t-163.5 90.5v-492 z" />
<glyph unicode="%" horiz-adv-x="1781" d="M84 1112q0 76 28.5 141.5t78 114.5t115 78t140.5 29q76 0 141.5 -29t115 -78t78 -114.5t28.5 -141.5t-28.5 -141.5t-78 -114.5t-115 -77.5t-141.5 -28.5t-141 28.5t-114.5 77.5t-78 114.5t-28.5 141.5zM254 1112q0 -41 15.5 -76t41 -60.5t60.5 -40.5t75 -15q39 0 75 15 t61.5 40.5t41 60.5t15.5 76q0 39 -15.5 75t-41 61.5t-61.5 41t-75 15.5q-41 0 -75.5 -15.5t-60 -41t-41 -61.5t-15.5 -75zM379 2l889 1514l137 -68l-887 -1514zM973 338q0 76 28.5 141.5t77.5 114.5t115 77.5t141 28.5q76 0 141.5 -28.5t114.5 -77.5t78 -114.5t29 -141.5 t-29 -141.5t-78 -114.5t-114.5 -78t-141.5 -29t-141.5 29t-114.5 78t-77.5 114.5t-28.5 141.5zM1143 338q0 -41 15.5 -76t41 -60.5t60 -41t75.5 -15.5q39 0 75 15.5t61.5 41t41 60.5t15.5 76q0 39 -15.5 75t-41 61.5t-61.5 40.5t-75 15q-41 0 -75.5 -15t-60 -40.5t-41 -61.5 t-15.5 -75z" />
<glyph unicode="&#x26;" horiz-adv-x="1480" d="M98 385q0 82 28 146.5t73 115.5t104 90t121 68q-70 72 -118 152.5t-48 179.5q0 88 32 153.5t86 109.5t123.5 65.5t145.5 21.5t143.5 -21.5t118.5 -64.5t82 -106.5t31 -147.5q0 -72 -25.5 -129t-68.5 -104.5t-99.5 -84t-117.5 -65.5l288 -297l183 307h225l-279 -432 l332 -342h-268l-180 190q-82 -102 -185.5 -159.5t-255.5 -57.5q-94 0 -180 27t-150.5 79t-102.5 129t-38 177zM303 389q0 -57 22.5 -104t60.5 -80t87 -50.5t100 -17.5q104 0 176 46t132 136l-344 361q-106 -45 -170 -112.5t-64 -178.5zM453 1135q0 -35 13 -70t33.5 -68.5 t46 -62.5t50.5 -51q45 20 88 44.5t76 57.5t53.5 72t20.5 86q0 78 -52.5 131t-134.5 53q-84 0 -139 -53t-55 -139z" />
<glyph unicode="'" horiz-adv-x="536" d="M184 938v512h168v-512h-168z" />
<glyph unicode="(" horiz-adv-x="645" d="M70 590q0 258 81.5 493.5t217.5 417.5l139 -90q-121 -168 -192.5 -382t-71.5 -439t71.5 -439t192.5 -382l-139 -91q-135 182 -217 418t-82 494z" />
<glyph unicode=")" horiz-adv-x="645" d="M137 -231q121 168 192.5 382t71.5 439t-71.5 439t-192.5 382l139 90q135 -182 217 -417.5t82 -493.5t-81.5 -493.5t-217.5 -418.5z" />
<glyph unicode="*" horiz-adv-x="929" d="M57 1114l56 156l260 -84v264h164v-264l260 84l55 -156l-260 -84l166 -223l-131 -98l-172 231l-172 -231l-131 98l165 223z" />
<glyph unicode="+" horiz-adv-x="1363" d="M143 537v168h455v454h168v-454h455v-168h-455v-455h-168v455h-455z" />
<glyph unicode="," horiz-adv-x="532" d="M70 -272l141 512h192l-170 -512h-163z" />
<glyph unicode="-" horiz-adv-x="655" d="M90 418v164h475v-164h-475z" />
<glyph unicode="." horiz-adv-x="532" d="M129 121q0 55 39 95t98 40t98 -39t39 -94q0 -53 -38.5 -94t-98.5 -41q-57 0 -97 40t-40 93z" />
<glyph unicode="/" horiz-adv-x="778" d="M-4 -18l629 1538l145 -54l-629 -1534z" />
<glyph unicode="0" d="M115 725q0 158 28.5 297t89 242.5t154.5 163t223 59.5t222.5 -59.5t154 -163t89 -242.5t28.5 -297q0 -160 -28.5 -298t-89 -241.5t-154 -163t-222.5 -59.5t-223 59.5t-154.5 163t-89 241.5t-28.5 298zM317 725q0 -92 12.5 -196.5t44.5 -192.5t89 -146.5t147 -58.5 q88 0 144.5 58.5t89.5 146.5t45 192.5t12 196.5t-12 196.5t-45 193.5t-89.5 147.5t-144.5 58.5q-90 0 -147 -58.5t-89 -147.5t-44.5 -193.5t-12.5 -196.5z" />
<glyph unicode="1" d="M186 1116l412 334h178v-1450h-198v1208l-275 -229z" />
<glyph unicode="2" d="M123 0v190l577 574q66 68 113 141.5t47 165.5q0 57 -20.5 103.5t-55 79t-82 50t-100.5 17.5q-111 0 -182.5 -70.5t-89.5 -181.5l-195 33q12 82 52 152.5t101.5 123t142.5 81t173 28.5q90 0 173 -26.5t146.5 -78t101.5 -129t38 -178.5q0 -70 -18.5 -129t-50 -112.5 t-74.5 -101.5t-91 -95l-471 -459h711v-178h-946z" />
<glyph unicode="3" d="M82 283l184 61q33 -94 112 -153.5t193 -59.5q55 0 107.5 17.5t93.5 52.5t65.5 86t24.5 121q0 76 -32.5 127t-85 82.5t-118 45t-128.5 13.5h-62v164h64q61 0 119.5 11t103.5 39t72.5 75t27.5 116q0 55 -20.5 99.5t-56 75t-82 48t-97.5 17.5q-92 0 -156.5 -47t-97.5 -131 l-180 63q53 131 171 206t271 75q90 0 171 -25.5t142.5 -75t97.5 -123t36 -169.5q0 -61 -19.5 -114.5t-53.5 -96.5t-81 -74t-102 -45v-4q63 -12 117.5 -43t93.5 -77t61.5 -105.5t22.5 -128.5q0 -109 -41 -192t-108.5 -138.5t-155.5 -84t-181 -28.5q-172 0 -303 78t-190 242z " />
<glyph unicode="4" d="M63 326v180l617 944h244v-954h209v-170h-209v-326h-193v326h-668zM268 496h463v727h-4z" />
<glyph unicode="5" d="M96 254l180 72q35 -88 110 -141.5t173 -53.5q63 0 118.5 22.5t96.5 63.5t64.5 98.5t23.5 126.5q0 82 -27.5 142.5t-74.5 99.5t-108.5 57.5t-129.5 18.5q-82 0 -168 -22.5t-153 -57.5l20 770h783v-176h-598l-13 -381q41 14 91.5 20.5t95.5 6.5q104 0 193 -32t153.5 -91.5 t101.5 -144.5t37 -189q0 -115 -39 -207t-106.5 -156.5t-159.5 -100.5t-201 -36q-170 0 -286.5 79t-176.5 212z" />
<glyph unicode="6" d="M106 440q0 119 39 215.5t103 196.5l379 598h235l-389 -584l2 -4q31 18 82 28.5t98 10.5q94 0 177 -33.5t144.5 -94t96.5 -144.5t35 -183q0 -109 -38 -197.5t-105.5 -152t-158.5 -98.5t-198 -35q-109 0 -201 36t-158.5 99.5t-104.5 151.5t-38 190zM307 438 q0 -63 21.5 -119.5t61.5 -97.5t95.5 -65.5t122.5 -24.5q68 0 122 22.5t94 64.5t61.5 98.5t21.5 123.5q0 66 -21.5 121t-59.5 96t-93 63.5t-123 22.5t-124 -22.5t-96 -63.5t-61.5 -96t-21.5 -123z" />
<glyph unicode="7" d="M131 1274v176h924v-180l-582 -1270h-227l604 1274h-719z" />
<glyph unicode="8" d="M123 395q0 72 21.5 133.5t59.5 108.5t88 79t105 48v4q-98 35 -160.5 119t-62.5 205q0 90 35 162.5t94 125t138 80t169 27.5q88 0 168 -27.5t138.5 -78t93 -123t34.5 -162.5q0 -119 -62 -207t-161 -121v-4q57 -14 107.5 -48t87.5 -81t58.5 -108.5t21.5 -131.5 q0 -102 -39 -182t-105.5 -135t-154.5 -85t-187 -30q-98 0 -187 30t-155.5 85t-105.5 135t-39 182zM326 406q0 -61 20.5 -112.5t58 -87.5t90 -56.5t115.5 -20.5q61 0 113.5 20.5t89.5 56.5t58.5 87t21.5 113q0 59 -21.5 109t-58.5 87t-89 57.5t-114 20.5q-61 0 -113.5 -20.5 t-90 -57.5t-59 -87t-21.5 -109zM373 1085q0 -49 17.5 -92t49 -74.5t75.5 -50t95 -18.5q49 0 92 18.5t76 50t51.5 74.5t18.5 92q0 51 -19.5 95.5t-51.5 76t-75 49t-92 17.5q-51 0 -95 -17.5t-75.5 -49t-49 -76t-17.5 -95.5z" />
<glyph unicode="9" d="M111 1004q0 109 37.5 197.5t105.5 152t160 98.5t198 35t198.5 -36t159 -99.5t104.5 -151.5t38 -190q0 -119 -39 -215.5t-100 -196.5l-379 -598h-236l390 586l-3 2q-31 -18 -83 -29q-25 -4 -50.5 -7t-48.5 -3q-96 0 -178 33.5t-143.5 94t-96 144.5t-34.5 183zM311 1010 q0 -66 21.5 -121t60.5 -96t94.5 -63.5t122.5 -22.5q68 0 124.5 22.5t96 63.5t61 96t21.5 123q0 63 -21.5 119.5t-61 98.5t-95 66.5t-123.5 24.5t-123 -23.5t-95 -64.5t-61.5 -98.5t-21.5 -124.5z" />
<glyph unicode=":" horiz-adv-x="614" d="M170 121q0 55 39 95t98 40t98 -39t39 -94q0 -53 -38.5 -94t-98.5 -41q-57 0 -97 40t-40 93zM170 848q0 53 39 94t98 41t98 -40t39 -93q0 -55 -38.5 -95t-98.5 -40q-57 0 -97 39t-40 94z" />
<glyph unicode=";" horiz-adv-x="614" d="M88 -272l141 512h193l-170 -512h-164zM170 848q0 53 39 94t98 41t98 -40t39 -93q0 -55 -38.5 -95t-98.5 -40q-57 0 -97 39t-40 94z" />
<glyph unicode="&#x3c;" horiz-adv-x="1363" d="M162 559v123l1044 473v-174l-788 -360l784 -361v-174z" />
<glyph unicode="=" horiz-adv-x="1363" d="M143 369v166h1078v-166h-1078zM143 707v165h1078v-165h-1078z" />
<glyph unicode="&#x3e;" horiz-adv-x="1363" d="M162 86v174l784 361l-784 360v174l1040 -473v-123z" />
<glyph unicode="?" horiz-adv-x="1024" d="M98 1102q12 88 51 158.5t97.5 120t134.5 75t162 25.5t160.5 -24.5t132 -73t90 -119t32.5 -162.5q0 -66 -14 -115t-39.5 -89t-62.5 -75t-80 -71q-41 -35 -69.5 -62.5t-45 -56.5t-24 -63.5t-7.5 -86.5v-71h-192v98q0 53 10 96t29.5 78t47.5 66.5t62 64.5l76 72q45 39 75 85 t30 118q0 98 -62.5 156.5t-161.5 58.5q-102 0 -163.5 -65.5t-71.5 -160.5zM393 121q0 55 39 95t98 40t98.5 -39t39.5 -94q0 -53 -39 -94t-99 -41q-57 0 -97 40t-40 93z" />
<glyph unicode="@" horiz-adv-x="1638" d="M68 723q0 164 61 303t167.5 241.5t249 161t304.5 58.5q139 0 270 -41t232.5 -123t162 -205t60.5 -289q0 -123 -33 -217t-88 -157.5t-128 -95t-152 -31.5q-86 0 -132.5 42t-46.5 101h-10q-12 -23 -34.5 -48.5t-55.5 -47t-73 -34.5t-89 -13q-139 0 -217 93t-78 241 q0 86 29 169.5t82 148t128 104.5t167 40q78 0 133 -33.5t74 -82.5h4l18 86h156l-80 -385q-6 -29 -13.5 -72t-7.5 -74q0 -35 14.5 -63.5t67.5 -28.5q45 0 83 25.5t64.5 70.5t42 108.5t15.5 137.5q0 129 -42 227.5t-117.5 165t-180 100t-227.5 33.5q-135 0 -245.5 -47 t-190.5 -131t-123 -197.5t-43 -244.5q0 -139 46 -252t128 -191.5t195.5 -121.5t250.5 -43q174 0 300 54t231 152l94 -108q-121 -127 -286 -186.5t-355 -59.5q-176 0 -320.5 56.5t-247 156.5t-158.5 240.5t-56 306.5zM618 655q0 -27 6.5 -58.5t23 -59t45 -46t73.5 -18.5 q63 0 106 32t71 78t40 100t12 99q0 37 -7 72t-24.5 62.5t-46 45t-73.5 17.5q-55 0 -97 -29.5t-71 -77t-43.5 -104.5t-14.5 -113z" />
<glyph unicode="A" horiz-adv-x="1456" d="M10 0l629 1450h184l623 -1450h-229l-148 356h-688l-145 -356h-226zM453 535h542l-270 679z" />
<glyph unicode="B" horiz-adv-x="1314" d="M176 0v1450h500q82 0 164 -18.5t146.5 -61.5t104 -112.5t39.5 -174.5q0 -121 -69.5 -202.5t-183.5 -112.5v-4q70 -8 129 -36t102 -73t66.5 -106.5t23.5 -136.5q0 -104 -43 -182t-116.5 -128.5t-173 -76t-212.5 -25.5h-477zM379 172h254q63 0 127.5 11.5t117 40t84 76.5 t31.5 122q0 129 -88 186.5t-254 57.5h-272v-494zM379 838h264q57 0 109.5 13t91.5 41t61.5 70t22.5 101q0 117 -86 167t-232 50h-231v-442z" />
<glyph unicode="C" horiz-adv-x="1449" d="M102 727q0 170 58.5 310.5t162 239.5t245 154.5t306.5 55.5q74 0 150 -14.5t145.5 -43t127 -70.5t98.5 -97l-160 -123q-53 74 -150.5 122t-210.5 48q-127 0 -228 -46t-173 -126t-110.5 -185.5t-38.5 -224.5q0 -123 37.5 -229.5t108.5 -185.5t172 -124t226 -45 q123 0 223.5 49.5t165.5 143.5l162 -111q-86 -117 -223 -189.5t-330 -72.5q-166 0 -306 56.5t-241.5 158t-159 241.5t-57.5 308z" />
<glyph unicode="D" horiz-adv-x="1558" d="M176 0v1450h498q139 0 278.5 -41t252 -129t182 -225t69.5 -330q0 -186 -69.5 -322.5t-182 -225.5t-252 -133t-278.5 -44h-498zM379 178h254q131 0 242.5 37t192.5 106.5t126 172t45 231.5q0 135 -45 237.5t-126 171t-192.5 104.5t-242.5 36h-254v-1096z" />
<glyph unicode="E" horiz-adv-x="1230" d="M176 0v1450h930v-178h-727v-434h684v-174h-684v-484h758v-180h-961z" />
<glyph unicode="F" horiz-adv-x="1163" d="M176 0v1450h905v-178h-702v-451h657v-174h-657v-647h-203z" />
<glyph unicode="G" horiz-adv-x="1593" d="M102 727q0 170 58.5 310.5t162 239.5t245 154.5t306.5 55.5q174 0 310.5 -51.5t226.5 -137.5l-141 -147q-66 72 -167.5 115t-225.5 43q-127 0 -229.5 -46t-174.5 -126t-110.5 -185.5t-38.5 -224.5q0 -121 38.5 -227.5t110.5 -185t176.5 -124t233.5 -45.5q102 0 188 18.5 t150 53.5v404h-322v172h522v-703q-115 -61 -250 -94t-294 -33q-170 0 -312.5 56.5t-245 158t-160 241.5t-57.5 308z" />
<glyph unicode="H" horiz-adv-x="1492" d="M176 0v1450h203v-606h733v606h205v-1450h-205v664h-733v-664h-203z" />
<glyph unicode="I" horiz-adv-x="555" d="M176 0v1450h203v-1450h-203z" />
<glyph unicode="J" horiz-adv-x="1013" d="M31 270l188 54q16 -78 71.5 -129.5t137.5 -51.5q66 0 108 25t66.5 66.5t34.5 98t10 120.5v997h203v-1006q0 -76 -16.5 -159.5t-61.5 -155.5t-126 -119t-208 -47q-166 0 -270.5 86t-136.5 221z" />
<glyph unicode="K" horiz-adv-x="1349" d="M176 0v1450h203v-639h4l647 639h281l-705 -664l748 -786h-291l-680 750h-4v-750h-203z" />
<glyph unicode="L" horiz-adv-x="1046" d="M176 0v1450h203v-1270h647v-180h-850z" />
<glyph unicode="M" horiz-adv-x="1849" d="M176 0v1450h316l434 -1114h4l428 1114h315v-1450h-203v1212h-4l-481 -1212h-129l-479 1212h-4v-1212h-197z" />
<glyph unicode="N" horiz-adv-x="1581" d="M176 0v1450h264l758 -1159h4v1159h203v-1450h-256l-766 1184h-4v-1184h-203z" />
<glyph unicode="O" horiz-adv-x="1738" d="M102 727q0 170 57.5 310.5t160 239.5t242.5 154.5t306 55.5t307.5 -55.5t244 -154.5t160.5 -239.5t58 -310.5q0 -168 -58 -308t-160.5 -241.5t-244 -158t-307.5 -56.5t-306 56.5t-242.5 158t-160 241.5t-57.5 308zM322 727q0 -121 38.5 -227.5t110.5 -185t172 -124 t225 -45.5t227.5 45.5t174 124t110.5 185t39 227.5q0 119 -39 224.5t-110.5 185.5t-173 126t-228.5 46q-125 0 -226 -46t-172 -126t-109.5 -185.5t-38.5 -224.5z" />
<glyph unicode="P" d="M176 0v1450h442q117 0 213.5 -23.5t164 -72.5t104.5 -125t37 -182q0 -109 -40 -187t-111 -127t-168 -72.5t-210 -23.5h-229v-637h-203zM379 809h215q74 0 136.5 13.5t107.5 41t69.5 72.5t24.5 111t-25.5 109.5t-69.5 71t-105.5 39t-133.5 11.5h-219v-469z" />
<glyph unicode="Q" horiz-adv-x="1732" d="M102 743q0 164 57.5 300.5t158 234.5t238.5 153.5t302 55.5q162 0 299 -55.5t237.5 -153.5t157 -234.5t56.5 -300.5q0 -195 -82 -340t-217 -229v-4h399v-170h-852q-166 0 -304 53t-238.5 149.5t-156 233.5t-55.5 307zM322 743q0 -119 37.5 -222t107.5 -179t168 -120 t221 -44q119 0 218.5 44t169 120t108.5 179.5t39 221.5q0 117 -37 219.5t-106.5 179.5t-168 122t-221.5 45t-221 -45t-169 -122t-108.5 -179.5t-37.5 -219.5z" />
<glyph unicode="R" horiz-adv-x="1257" d="M176 0v1450h465q104 0 198.5 -21.5t165 -68.5t111.5 -124t41 -187q0 -160 -98 -258.5t-254 -124.5l405 -666h-245l-369 645h-217v-645h-203zM379 815h233q72 0 133.5 12.5t107.5 40t72.5 71.5t26.5 110t-26.5 109.5t-70.5 70t-103.5 38t-124.5 11.5h-248v-463z" />
<glyph unicode="S" horiz-adv-x="1165" d="M76 174l157 133q51 -76 137.5 -123t186.5 -47q51 0 102.5 14.5t93.5 45t68.5 76.5t26.5 112t-27.5 110t-75 74.5t-110 52t-131.5 44.5q-70 20 -137.5 49.5t-120.5 76t-86 114t-33 167.5q0 109 44 186.5t114.5 129t160 75t179.5 23.5q127 0 237.5 -45t177.5 -121 l-143 -139q-43 59 -116.5 97t-166.5 38q-49 0 -99 -13.5t-91 -43t-66.5 -73.5t-25.5 -106q0 -59 23.5 -99t63.5 -67.5t94 -47t116 -40.5q74 -23 149.5 -51t137 -75.5t100.5 -118t39 -179.5q0 -113 -42 -195.5t-112 -137t-161 -81t-187 -26.5q-137 0 -265 53.5t-212 157.5z " />
<glyph unicode="T" horiz-adv-x="1165" d="M16 1272v178h1133v-178h-465v-1272h-203v1272h-465z" />
<glyph unicode="U" horiz-adv-x="1458" d="M166 537v913h203v-901q0 -74 18.5 -146.5t60 -130t110.5 -92.5t171 -35q100 0 170 35t112 92.5t60.5 130t18.5 146.5v901h202v-913q0 -111 -33.5 -214.5t-103.5 -183.5t-176.5 -128t-249.5 -48t-249.5 48t-176.5 128t-103.5 183.5t-33.5 214.5z" />
<glyph unicode="V" horiz-adv-x="1314" d="M-4 1450h225l436 -1188h7l436 1188h219l-569 -1450h-189z" />
<glyph unicode="W" horiz-adv-x="2023" d="M20 1450h220l319 -1155h4l340 1155h223l338 -1155h4l320 1155h215l-426 -1450h-211l-352 1165h-4l-353 -1165h-211z" />
<glyph unicode="X" horiz-adv-x="1368" d="M37 0l518 768l-467 682h248l348 -541l344 541h238l-463 -686l526 -764h-256l-397 610l-389 -610h-250z" />
<glyph unicode="Y" horiz-adv-x="1277" d="M-6 1450h250l401 -655l404 655h235l-543 -823v-627h-204v627z" />
<glyph unicode="Z" horiz-adv-x="1212" d="M68 0v178l817 1094h-801v178h1049v-178l-820 -1092h832v-180h-1077z" />
<glyph unicode="[" horiz-adv-x="645" d="M121 -319v1818h362v-135h-190v-1548h190v-135h-362z" />
<glyph unicode="\" horiz-adv-x="778" d="M8 1466l144 54l630 -1538l-145 -50z" />
<glyph unicode="]" horiz-adv-x="645" d="M162 -184h190v1548h-190v135h362v-1818h-362v135z" />
<glyph unicode="^" horiz-adv-x="1363" d="M152 633l462 817h136l462 -817h-186l-346 614l-342 -614h-186z" />
<glyph unicode="_" horiz-adv-x="1024" d="M0 -154h1024v-129h-1024v129z" />
<glyph unicode="`" horiz-adv-x="512" d="M-70 1450h232l205 -295h-158z" />
<glyph unicode="a" horiz-adv-x="1110" d="M94 274q0 111 59.5 175.5t156 98.5t217 44t243.5 10v27q0 109 -65.5 161t-174.5 52q-82 0 -154.5 -32t-121.5 -81l-102 123q72 68 175 106.5t222 38.5q104 0 181 -29.5t126 -80.5t73.5 -121t24.5 -150v-423q0 -49 3.5 -103.5t11.5 -89.5h-174q-16 70 -17 139h-6 q-53 -78 -134 -121t-192 -43q-57 0 -119.5 15.5t-113.5 50.5t-85 92t-34 141zM291 279q0 -43 17.5 -72t46 -47.5t63.5 -25.5t71 -7q135 0 208 81t73 204v51h-47q-72 0 -148.5 -6t-139 -24.5t-103.5 -55.5t-41 -98z" />
<glyph unicode="b" horiz-adv-x="1302" d="M170 0v1548h192v-723h7q49 72 137 122t209 50q109 0 197.5 -38.5t153 -108.5t99.5 -163t35 -200q0 -106 -35 -200t-98 -164t-153.5 -110t-202.5 -40q-104 0 -198.5 46.5t-152.5 134.5h-4v-154h-186zM350 485q0 -70 23.5 -133t66.5 -111t103.5 -77t134.5 -29 q80 0 140.5 30t101.5 79t61 112t20 131t-20 131.5t-61 112.5t-101.5 78t-140.5 29q-74 0 -134.5 -29t-103.5 -78t-66.5 -112.5t-23.5 -133.5z" />
<glyph unicode="c" horiz-adv-x="1011" d="M102 485q0 115 39 209t108.5 162t165 104.5t206.5 36.5q102 0 203.5 -41t160.5 -118l-139 -113q-31 47 -92.5 79t-130.5 32q-76 0 -134.5 -29t-99.5 -77t-62.5 -111.5t-21.5 -133.5t21.5 -133t62.5 -111t100.5 -77t135.5 -29q74 0 134 29t99 78l129 -117 q-61 -72 -153.5 -112t-208.5 -40q-113 0 -208 37t-165 103.5t-110 161t-40 210.5z" />
<glyph unicode="d" horiz-adv-x="1300" d="M100 487q0 106 35 199.5t99.5 163.5t154.5 108.5t199 38.5q119 0 207 -50t139 -122h4v723h192v-1548h-186v154h-4q-55 -88 -150.5 -134.5t-199.5 -46.5q-113 0 -203 40t-153.5 110t-98.5 164t-35 200zM301 487q0 -68 20.5 -131t61.5 -112t100.5 -79t139.5 -30 q74 0 134 29t103 77t66.5 111.5t23.5 132.5q0 70 -23.5 133.5t-66.5 112.5t-103.5 78t-133.5 29q-80 0 -139.5 -29t-100.5 -78t-61.5 -112.5t-20.5 -131.5z" />
<glyph unicode="e" horiz-adv-x="1173" d="M102 483q0 113 38 208t105.5 163t160 105.5t198.5 37.5t193.5 -34.5t148 -100t93 -158.5t32.5 -210v-33t-2 -33h-770q2 -61 27.5 -115.5t68.5 -94.5t99.5 -62.5t119.5 -22.5q98 0 170 43t113 105l135 -109q-78 -102 -183.5 -150.5t-234.5 -48.5q-111 0 -205 37 t-161.5 103.5t-106.5 161t-39 208.5zM299 571h578q-2 57 -19.5 107.5t-51.5 87.5t-84 58.5t-118 21.5q-61 0 -115.5 -21.5t-94.5 -58.5t-65.5 -87t-29.5 -108z" />
<glyph unicode="f" horiz-adv-x="634" d="M12 813v158h193v203q0 86 19.5 158.5t63.5 125.5t112.5 84t166.5 31q70 0 121 -14l-22 -166q-23 6 -45.5 10t-51.5 4q-55 0 -89 -19.5t-52 -52t-24.5 -74.5t-6.5 -87v-203h226v-158h-226v-813h-192v813h-193z" />
<glyph unicode="g" horiz-adv-x="1294" d="M102 492q0 104 35 196t98.5 161t153.5 108.5t201 39.5q104 0 199.5 -45t150.5 -137h4v156h186v-922q0 -106 -26.5 -203.5t-90 -172t-166 -120t-253.5 -45.5q-127 0 -255 46.5t-220 130.5l123 149q63 -72 158.5 -115t195.5 -43q96 0 161.5 28t105.5 76t57.5 113.5 t17.5 141.5v125h-4q-53 -82 -145.5 -125t-196.5 -43q-111 0 -202 39t-154.5 106.5t-98.5 158.5t-35 196zM301 496q0 -68 21.5 -129.5t63.5 -108.5t101.5 -75.5t135.5 -28.5q74 0 135 26.5t104 72.5t66.5 108.5t23.5 134.5q0 70 -23.5 131t-67.5 108t-104.5 75t-133.5 28 q-76 0 -135.5 -28t-101.5 -74t-63.5 -108t-21.5 -132z" />
<glyph unicode="h" horiz-adv-x="1196" d="M170 0v1548h192v-725h5q35 72 118.5 123t188.5 51q94 0 161.5 -31.5t112.5 -85t66.5 -125t21.5 -153.5v-602h-192v537q0 59 -9.5 112t-34 94t-66.5 66t-109 25q-115 0 -189 -87.5t-74 -232.5v-514h-192z" />
<glyph unicode="i" horiz-adv-x="530" d="M137 1321q0 53 37 89t90 36t91 -36t38 -89t-38 -88t-91 -35t-90 36t-37 87zM168 0v971h192v-971h-192z" />
<glyph unicode="j" horiz-adv-x="532" d="M-63 -479l20 164q41 -10 78 -11q43 0 69.5 16.5t41 44t19.5 65.5t5 81v1090h192v-1096q0 -74 -13 -139.5t-48 -116.5t-96.5 -81t-157.5 -30q-27 0 -57.5 4.5t-52.5 8.5zM137 1321q0 53 38 89t91 36t91 -36t38 -89t-38 -88t-91 -35t-91 36t-38 87z" />
<glyph unicode="k" horiz-adv-x="1079" d="M170 0v1548h192v-999h7l407 422h258l-454 -441l493 -530h-266l-438 504h-7v-504h-192z" />
<glyph unicode="l" horiz-adv-x="532" d="M170 0v1548h192v-1548h-192z" />
<glyph unicode="m" horiz-adv-x="1816" d="M158 971h182q4 -37 6 -83t2 -77h6q37 78 118 132t192 54q98 0 177 -45t124 -149q49 94 137 144t192 50q94 0 162 -31.5t113 -85t66.5 -125t21.5 -153.5v-602h-193v539q0 59 -10 112.5t-34.5 94t-65.5 65.5t-105 25q-66 0 -112.5 -28t-76.5 -72t-43 -99t-13 -113v-524 h-193v578q0 57 -10 104t-35 81t-63.5 53.5t-96.5 19.5q-106 0 -177 -87t-71 -233v-516h-192v762q0 39 -2 100.5t-6 108.5z" />
<glyph unicode="n" horiz-adv-x="1191" d="M158 971h182q4 -37 6 -83t2 -77h6q18 39 50 73t73 59.5t90 39.5t103 14q94 0 161.5 -31.5t112.5 -85t66.5 -125t21.5 -153.5v-602h-192v539q0 59 -9.5 112.5t-34 94t-67.5 65.5t-111 25q-115 0 -187.5 -87t-72.5 -233v-516h-192v762q0 39 -2 100.5t-6 108.5z" />
<glyph unicode="o" horiz-adv-x="1249" d="M102 487q0 113 40 206t110 161t166 105.5t207 37.5t207 -37.5t166.5 -105.5t110.5 -161t40 -206t-40 -207t-110.5 -162.5t-167 -106.5t-206.5 -38q-111 0 -207 38t-166 106.5t-110 163t-40 206.5zM301 487q0 -70 21.5 -133t62.5 -112t101.5 -78t138.5 -29t138 29t101 78 t62.5 112t21.5 133t-21.5 133.5t-62.5 111.5t-101.5 77t-137.5 29q-78 0 -138.5 -29t-101.5 -77t-62.5 -111.5t-21.5 -133.5z" />
<glyph unicode="p" horiz-adv-x="1298" d="M166 -492v1463h188v-152h6q47 78 138.5 128t212.5 50q109 0 197.5 -38.5t153 -108.5t99.5 -163t35 -200q0 -106 -35 -200t-98.5 -164t-153.5 -110t-202 -40q-104 0 -196.5 45t-145.5 127h-7v-637h-192zM346 485q0 -70 23.5 -133t66.5 -111t103.5 -77t134.5 -29 q80 0 140 30t101 79t61.5 112t20.5 131t-20.5 131.5t-61.5 112.5t-101 78t-140 29q-74 0 -134.5 -29t-103.5 -78t-66.5 -112.5t-23.5 -133.5z" />
<glyph unicode="q" horiz-adv-x="1296" d="M100 487q0 106 35 199.5t99.5 163.5t154.5 108.5t199 38.5q119 0 210 -50t140 -128h6v152h186v-1463h-192v637h-4q-53 -82 -146.5 -127t-197.5 -45q-113 0 -203 40t-153.5 110t-98.5 164t-35 200zM301 487q0 -68 20.5 -131t61.5 -112t100.5 -79t139.5 -30q74 0 134 29 t103 77t66.5 111.5t23.5 132.5q0 70 -23.5 133.5t-66.5 112.5t-103.5 78t-133.5 29q-80 0 -139.5 -29t-100.5 -78t-61.5 -112.5t-20.5 -131.5z" />
<glyph unicode="r" horiz-adv-x="741" d="M158 971h182q4 -37 6 -85t2 -79h6q41 86 120 138t177 52q45 0 76 -8l-8 -178q-41 10 -88 10q-70 0 -121 -25.5t-85 -68.5t-50.5 -99.5t-16.5 -117.5v-510h-192v762q0 39 -2 100.5t-6 108.5z" />
<glyph unicode="s" horiz-adv-x="909" d="M53 147l137 117q39 -57 108 -96t151 -39q37 0 70.5 7t61 23.5t44 43t16.5 67.5q0 68 -64.5 100.5t-189.5 61.5q-49 12 -99 29.5t-91 48.5t-67 77t-26 113q0 78 32 134.5t83 92.5t116.5 53t135.5 17q104 0 201.5 -41t150.5 -118l-133 -113q-33 53 -92 87t-133 34 q-33 0 -65.5 -7.5t-58.5 -22.5t-41 -38.5t-15 -58.5q0 -61 55 -91t166 -55q70 -16 129 -38.5t103 -56.5t68.5 -81t24.5 -110q0 -86 -32.5 -145.5t-87 -97.5t-124 -54.5t-143.5 -16.5q-111 0 -216 43t-175 131z" />
<glyph unicode="t" horiz-adv-x="673" d="M6 813v158h187v278h190v-278h258v-158h-258v-506q0 -88 33 -126t104 -38q27 0 57.5 6.5t55.5 18.5l6 -158q-35 -12 -77 -19t-87 -7q-137 0 -209.5 75.5t-72.5 227.5v526h-187z" />
<glyph unicode="u" horiz-adv-x="1191" d="M158 369v602h192v-537q0 -59 9.5 -113.5t34 -95.5t67.5 -65.5t110 -24.5q117 0 188.5 87t71.5 233v516h193v-762q0 -39 2 -100.5t6 -108.5h-182q-4 37 -6 83t-2 77h-4q-37 -78 -124 -132.5t-194 -54.5q-94 0 -162.5 31t-112.5 85t-65.5 126t-21.5 154z" />
<glyph unicode="v" horiz-adv-x="1032" d="M18 971h213l285 -764h4l287 764h205l-389 -971h-209z" />
<glyph unicode="w" horiz-adv-x="1583" d="M29 971h209l219 -742h4l231 742h203l235 -742h5l219 742h202l-321 -971h-201l-239 729h-4l-238 -729h-201z" />
<glyph unicode="x" horiz-adv-x="1046" d="M14 0l389 510l-354 461h238l237 -334l240 334h225l-350 -459l391 -512h-239l-271 379l-274 -379h-232z" />
<glyph unicode="y" horiz-adv-x="1032" d="M18 971h215l302 -762h4l268 762h205l-471 -1200q-25 -61 -53.5 -109.5t-67.5 -82.5t-91.5 -52.5t-123.5 -18.5q-31 0 -62.5 3.5t-64.5 11.5l18 170q49 -16 97 -17q76 0 112.5 42t67.5 120l61 162z" />
<glyph unicode="z" horiz-adv-x="946" d="M68 0v158l548 655h-522v158h764v-158l-553 -651h576v-162h-813z" />
<glyph unicode="{" horiz-adv-x="645" d="M10 514v152q61 0 106.5 43t45.5 141v385q0 70 19.5 120t53 82.5t77.5 47t91 14.5h140v-141h-105q-35 0 -55.5 -13.5t-30.5 -35t-14 -47t-4 -52.5v-374q0 -68 -21.5 -113t-52.5 -72.5t-63.5 -42t-53.5 -16.5v-4q20 -2 53 -14.5t64 -40t52.5 -74.5t21.5 -121v-369 q0 -27 4 -52.5t14 -47t30.5 -34.5t55.5 -13h105v-141h-140q-47 0 -91 14t-77.5 47t-53 82t-19.5 121v377q0 104 -45 148t-107 44z" />
<glyph unicode="|" horiz-adv-x="454" d="M143 -512v2048h168v-2048h-168z" />
<glyph unicode="}" horiz-adv-x="645" d="M102 -178h107q33 0 53.5 13t30.5 34.5t14 47.5t4 52v369q0 74 21.5 121t52.5 74.5t63.5 40t55.5 14.5v4q-23 2 -55.5 16.5t-63.5 42t-52.5 72.5t-21.5 113v374q0 27 -4 52.5t-14 47t-30.5 35t-53.5 13.5h-107v141h140q47 0 91 -14.5t77.5 -47t53 -82.5t19.5 -120v-385 q0 -98 45 -141t107 -43v-152q-61 0 -106.5 -44t-45.5 -148v-377q0 -72 -19.5 -121t-53 -82t-77.5 -47t-91 -14h-140v141z" />
<glyph unicode="~" horiz-adv-x="1363" d="M166 586q72 119 148.5 159.5t146.5 40.5q61 0 113 -16t122 -61q39 -25 68 -41.5t51.5 -24.5t42 -11t41.5 -3q102 0 178 139l121 -113q-37 -59 -74 -98t-74.5 -61.5t-74.5 -30.5t-72 -8q-59 0 -112.5 16t-124.5 62q-39 25 -67 40t-50.5 23t-42 11t-41.5 3 q-102 0 -178 -139z" />
<glyph unicode="&#xa1;" horiz-adv-x="684" d="M205 877q0 53 40 93t97 40q59 0 98 -41.5t39 -94.5q0 -55 -39 -94t-98 -39t-98 40t-39 96zM240 -453v1026h202v-1026h-202z" />
<glyph unicode="&#xa2;" d="M170 487q0 102 30.5 189.5t88 154t139.5 108.5t184 54v133h105v-131q96 -4 185 -39.5t155 -113.5l-135 -123q-35 45 -87.5 74.5t-117.5 33.5v-684q66 2 120 33t89 76l131 -123q-66 -76 -156 -112.5t-184 -41.5v-135h-105v137q-102 10 -184 53.5t-139.5 111t-88 155.5 t-30.5 190zM360 485q0 -127 66 -221t186 -119v680q-123 -23 -187.5 -118t-64.5 -222z" />
<glyph unicode="&#xa3;" d="M143 0v172h205v494h-198v147h198v180q0 82 23.5 169t78 160t144.5 119t223 46q98 0 185.5 -31t152.5 -92l-121 -137q-39 43 -96 68.5t-125 25.5q-82 0 -133 -34t-81 -85t-40 -110.5t-10 -110.5v-168h340v-147h-340v-494h538v-172h-944z" />
<glyph unicode="&#xa4;" d="M41 100l176 181q-39 57 -63.5 131.5t-24.5 158.5q0 86 21.5 156t60.5 129l-170 172l106 105l172 -168q59 41 134 66.5t159 25.5q86 0 160 -25.5t131 -66.5l170 168l107 -105l-168 -168q43 -59 65.5 -131t22.5 -158t-25.5 -161.5t-66.5 -135.5l172 -174l-105 -106 l-178 174q-57 -41 -129 -63.5t-156 -22.5q-78 0 -151.5 24.5t-132.5 65.5l-181 -178zM301 571q0 -68 21.5 -126t62.5 -103t98.5 -70.5t128.5 -25.5q72 0 130.5 25.5t99.5 70.5t62.5 103.5t21.5 125.5q0 68 -21.5 126.5t-62.5 102.5t-99.5 69.5t-130.5 25.5t-129 -25.5 t-98 -69.5t-62.5 -102.5t-21.5 -126.5z" />
<glyph unicode="&#xa5;" d="M27 1450h235l356 -602l349 602h225l-426 -662h289v-135h-348v-186h348v-135h-348v-332h-195v332h-348v135h348v186h-348v135h297z" />
<glyph unicode="&#xa6;" horiz-adv-x="454" d="M143 -358v716h168v-716h-168zM143 666v716h168v-716h-168z" />
<glyph unicode="&#xa7;" d="M154 -51l170 94q35 -84 110.5 -122t155.5 -38q33 0 70.5 9.5t70.5 29t53.5 52t20.5 81.5q0 43 -16.5 75t-52.5 58.5t-91 52t-135 60.5q-66 29 -124 58.5t-101 66.5t-69 86t-26 119q0 106 59.5 178t145.5 106q-55 35 -98 91.5t-43 148.5q0 84 35 146.5t91 103.5t128 61.5 t145 20.5q129 0 226.5 -49t148.5 -135l-145 -107q-29 53 -88.5 92t-139.5 39t-141 -41t-61 -119q0 -41 17 -72.5t50 -59t82 -51t113 -50.5q72 -31 134 -62.5t108.5 -73.5t72 -95.5t25.5 -122.5q0 -92 -51.5 -163t-122.5 -104q125 -84 125 -245q0 -90 -36 -157t-94.5 -110 t-133 -64.5t-152.5 -21.5q-133 0 -253 57.5t-183 176.5zM379 659q0 -39 15.5 -67.5t42 -50t62.5 -39t74 -35.5l172 -74q47 16 84 58.5t37 101.5q0 43 -15 73.5t-41 54.5t-58.5 41t-67.5 34l-154 67q-25 -6 -52 -19t-48.5 -32.5t-36 -47.5t-14.5 -65z" />
<glyph unicode="&#xa8;" horiz-adv-x="512" d="M-70 1321q0 49 36 87t91 38q53 0 90 -36t37 -89q0 -51 -36.5 -87t-90.5 -36q-55 0 -91 38t-36 85zM328 1321q0 49 35.5 87t91.5 38q53 0 90 -36t37 -89q0 -51 -37 -87t-90 -36q-55 0 -91 38t-36 85z" />
<glyph unicode="&#xa9;" horiz-adv-x="1638" d="M41 723q0 162 61.5 302t167 244.5t247.5 165t304 60.5q160 0 301.5 -60.5t247 -165t166.5 -244.5t61 -302q0 -160 -61 -300t-166.5 -244.5t-247 -164t-301.5 -59.5q-162 0 -304 59.5t-247.5 164t-167 244.5t-61.5 300zM164 723q0 -135 52 -254t141 -208t209 -140t255 -51 t254 51t208 140t140.5 208t51.5 254t-51.5 255t-140.5 209t-208 141t-254 52t-255 -52t-209 -141t-141 -209t-52 -255zM375 737q0 106 37 191.5t101.5 145t151.5 92t189 32.5q43 0 88 -8t88 -24.5t80 -42t64 -60.5l-119 -94q-35 47 -91.5 68.5t-109.5 21.5q-68 0 -124 -24.5 t-96 -67.5t-62.5 -102.5t-22.5 -127.5q0 -145 81 -235t218 -90q72 0 126 27.5t89 74.5l125 -88q-59 -74 -144.5 -115t-197.5 -41q-102 0 -189.5 34t-150 95.5t-97 147.5t-34.5 190z" />
<glyph unicode="&#xaa;" horiz-adv-x="778" d="M104 1049q0 63 37 102t94.5 60.5t129 27.5t139.5 6v15q0 53 -39 79.5t-94 26.5q-47 0 -89 -18.5t-71 -47.5l-74 89q49 47 114.5 69.5t131.5 22.5q78 0 128 -21.5t80 -57.5t41 -80t11 -87v-352h-137v75h-2q-23 -39 -71 -64.5t-111 -25.5q-35 0 -73 9.5t-71 30t-53.5 55 t-20.5 86.5zM250 1051q0 -43 31.5 -58.5t70.5 -15.5q74 0 113 40t39 109v21h-33q-35 0 -74 -3t-71.5 -13.5t-54 -29t-21.5 -50.5z" />
<glyph unicode="&#xab;" horiz-adv-x="1024" d="M82 500l299 444l125 -86l-236 -358l238 -359l-127 -88zM498 500l299 444l125 -86l-236 -358l236 -359l-125 -88z" />
<glyph unicode="&#xac;" horiz-adv-x="1363" d="M143 707v165h1078v-587h-166v422h-912z" />
<glyph unicode="&#xad;" horiz-adv-x="655" d="M90 418v164h475v-164h-475z" />
<glyph unicode="&#xae;" horiz-adv-x="1228" d="M147 1010q0 96 37 181t100.5 147.5t148.5 99.5t181 37t181.5 -37t149 -99.5t100 -147.5t36.5 -181t-36.5 -180.5t-100 -146.5t-148.5 -98t-182 -36q-96 0 -181 36t-148.5 98t-100.5 146.5t-37 180.5zM221 1010q0 -80 31 -152t84 -126t124.5 -85t153.5 -31t154 31t125 85 t84 126t31 152q0 82 -31 153.5t-84 124.5t-125 84t-154 31t-153.5 -31t-124.5 -84t-84 -124.5t-31 -153.5zM416 754v524h225q37 0 72 -8t63.5 -26.5t46 -50.5t17.5 -79q0 -53 -30 -88t-75 -51l139 -221h-147l-113 202h-73v-202h-125zM541 1047h96q29 0 52.5 18t23.5 49 q0 33 -27 47.5t-49 14.5h-96v-129z" />
<glyph unicode="&#xaf;" horiz-adv-x="512" d="M-47 1223v137h606v-137h-606z" />
<glyph unicode="&#xb0;" horiz-adv-x="819" d="M92 1157q0 68 24.5 125t67.5 100t100.5 68t125.5 25t125 -25t100 -68t67.5 -100t24.5 -125t-24.5 -125t-67.5 -99t-100.5 -66.5t-124.5 -24.5q-68 0 -125.5 24.5t-100.5 66.5t-67.5 99.5t-24.5 124.5zM223 1157q0 -78 54.5 -132t132.5 -54t132 54t54 132q0 39 -14.5 74 t-40 60.5t-59 40t-72.5 14.5t-73 -14.5t-59.5 -40t-40 -60.5t-14.5 -74z" />
<glyph unicode="&#xb1;" horiz-adv-x="1363" d="M143 82v166h1078v-166h-1078zM143 692v166h457v307h166v-307h455v-166h-455v-301h-166v301h-457z" />
<glyph unicode="&#xb2;" horiz-adv-x="788" d="M102 586v137l336 338q33 35 57.5 72.5t24.5 87.5q0 53 -34.5 82.5t-88.5 29.5q-55 0 -92 -38t-47 -101l-152 20q16 113 96.5 186t194.5 73q55 0 106.5 -15.5t90.5 -47.5t62.5 -79t23.5 -110q0 -88 -44 -149.5t-99 -115.5l-234 -229h379v-141h-580z" />
<glyph unicode="&#xb3;" horiz-adv-x="788" d="M82 788l145 46q18 -55 59.5 -89t100.5 -34q55 0 102.5 31.5t47.5 101.5q0 39 -17.5 63.5t-44 40t-60.5 21.5t-67 6h-55v127h55q66 0 115 28.5t49 100.5q0 49 -37 78.5t-88 29.5q-45 0 -81 -28.5t-54 -75.5l-139 47q37 92 111.5 142.5t166.5 50.5q57 0 107.5 -14.5 t88.5 -44.5t59.5 -75t21.5 -104q0 -70 -37 -119t-90 -71q66 -20 107.5 -76t41.5 -131q0 -68 -25.5 -117t-67.5 -83t-95 -50.5t-111 -16.5q-104 0 -186 50.5t-123 164.5z" />
<glyph unicode="&#xb4;" horiz-adv-x="512" d="M145 1155l205 295h232l-279 -295h-158z" />
<glyph unicode="&#xb5;" horiz-adv-x="1183" d="M154 -492v1463h192v-537q0 -59 9.5 -113.5t34 -95.5t67.5 -65.5t110 -24.5q117 0 188.5 87t71.5 233v516h193v-762q0 -39 2 -100.5t6 -108.5h-182q-4 37 -6 83t-2 77h-4q-37 -78 -124 -132.5t-194 -54.5q-51 0 -97 16.5t-73 45.5v-527h-192z" />
<glyph unicode="&#xb6;" horiz-adv-x="1228" d="M80 1047q0 203 129 303t344 100h518v-1708h-160v1579h-235v-1579h-162v928q-96 0 -176 28.5t-137.5 79.5t-89 120t-31.5 149z" />
<glyph unicode="&#xb7;" horiz-adv-x="532" d="M129 618q0 55 40 96.5t99 41.5q57 0 97.5 -40t40.5 -95q0 -53 -39 -94.5t-99 -41.5q-59 0 -99 40t-40 93z" />
<glyph unicode="&#xb8;" horiz-adv-x="512" d="M25 -434l41 86q76 -35 157 -35q16 0 38 4t41.5 13.5t32.5 25.5t13 43q0 45 -34.5 61.5t-75.5 16.5q-18 0 -41 -4t-43 -10l-41 40l127 193h102l-94 -141q14 4 26.5 4h28.5q35 0 69 -8.5t61.5 -26.5t45 -49t17.5 -76q0 -53 -25 -89t-62.5 -57.5t-83.5 -29.5t-89 -8 q-53 0 -110.5 12t-100.5 35z" />
<glyph unicode="&#xb9;" horiz-adv-x="788" d="M113 1241l256 209h137v-872h-160v679l-139 -120z" />
<glyph unicode="&#xba;" horiz-adv-x="778" d="M78 1176q0 68 23.5 123t64.5 95t98.5 62.5t124.5 22.5q68 0 125 -22.5t98 -62.5t64.5 -95t23.5 -123q0 -66 -23.5 -122.5t-64.5 -96t-98 -62.5t-125 -23t-125 23t-98 62.5t-64.5 96t-23.5 122.5zM233 1176q0 -66 39 -117t117 -51t118 51t40 117q0 68 -40 117.5t-118 49.5 t-117 -50t-39 -117z" />
<glyph unicode="&#xbb;" horiz-adv-x="1024" d="M102 141l236 359l-236 358l125 86l299 -444l-299 -447zM516 141l238 359l-236 358l125 86l299 -444l-299 -447z" />
<glyph unicode="&#xbc;" horiz-adv-x="1781" d="M113 1241l256 209h137v-872h-160v679l-139 -120zM346 -8l924 1521l116 -63l-921 -1522zM995 186v131l363 555h170v-548h121v-138h-121v-186h-146v186h-387zM1153 324h229v356h-6z" />
<glyph unicode="&#xbd;" horiz-adv-x="1781" d="M113 1241l256 209h137v-872h-160v679l-139 -120zM346 -8l924 1521l116 -63l-921 -1522zM1081 0v137l336 338q33 35 57.5 73t24.5 87q0 53 -34.5 83t-88.5 30q-55 0 -92 -38t-47 -102l-152 21q16 113 96.5 185.5t194.5 72.5q55 0 106.5 -15.5t90.5 -47t62.5 -79 t23.5 -110.5q0 -88 -44 -149.5t-99 -114.5l-234 -230h379v-141h-580z" />
<glyph unicode="&#xbe;" horiz-adv-x="1781" d="M82 788l145 46q18 -55 59.5 -89t100.5 -34q55 0 102.5 31.5t47.5 101.5q0 39 -17.5 63.5t-44 40t-60.5 21.5t-67 6h-55v127h55q66 0 115 28.5t49 100.5q0 49 -37 78.5t-88 29.5q-45 0 -81 -28.5t-54 -75.5l-139 47q37 92 111.5 142.5t166.5 50.5q57 0 107.5 -14.5 t88.5 -44.5t59.5 -75t21.5 -104q0 -70 -37 -119t-90 -71q66 -20 107.5 -76t41.5 -131q0 -68 -25.5 -117t-67.5 -83t-95 -50.5t-111 -16.5q-104 0 -186 50.5t-123 164.5zM346 -8l924 1521l116 -63l-921 -1522zM995 186v131l363 555h170v-548h121v-138h-121v-186h-146v186 h-387zM1153 324h229v356h-6z" />
<glyph unicode="&#xbf;" horiz-adv-x="1024" d="M78 -104q0 66 14 114.5t40 88.5t62.5 75t79.5 72q41 35 69 62.5t45.5 56t24.5 63.5t7 86v72h192v-99q0 -53 -10 -96t-29.5 -77.5t-47 -66.5t-62.5 -65l-76 -71q-45 -39 -74.5 -85t-29.5 -118q0 -98 62.5 -156.5t160.5 -58.5q102 0 163.5 65.5t71.5 159.5l197 -22 q-12 -88 -51 -159t-97.5 -120t-134 -74.5t-161.5 -25.5t-161 24.5t-132.5 72.5t-90 118.5t-32.5 163.5zM369 874q0 53 38.5 94.5t98.5 41.5q57 0 97 -40t40 -93q0 -55 -39 -95.5t-98 -40.5t-98 39t-39 94z" />
<glyph unicode="&#xc0;" horiz-adv-x="1456" d="M10 0l629 1450h184l623 -1450h-229l-148 356h-688l-145 -356h-226zM375 1860h233l205 -295h-158zM453 535h542l-270 679z" />
<glyph unicode="&#xc1;" horiz-adv-x="1456" d="M10 0l629 1450h184l623 -1450h-229l-148 356h-688l-145 -356h-226zM453 535h542l-270 679zM659 1565l203 295h234l-281 -295h-156z" />
<glyph unicode="&#xc2;" horiz-adv-x="1456" d="M10 0l629 1450h184l623 -1450h-229l-148 356h-688l-145 -356h-226zM395 1565l230 295h221l229 -295h-186l-154 202l-155 -202h-185zM453 535h542l-270 679z" />
<glyph unicode="&#xc3;" horiz-adv-x="1456" d="M10 0l629 1450h184l623 -1450h-229l-148 356h-688l-145 -356h-226zM379 1581q8 45 21.5 87t38 76t60.5 54.5t89 20.5q39 0 79 -12.5t74 -28.5q41 -18 75 -31.5t63 -13.5q45 0 66.5 29.5t31.5 64.5h110q-8 -45 -21 -87t-37.5 -76t-61.5 -54.5t-88 -20.5q-39 0 -80 13.5 t-78 29.5q-37 18 -71 30.5t-62 12.5q-43 0 -64.5 -29.5t-31.5 -64.5h-113zM453 535h542l-270 679z" />
<glyph unicode="&#xc4;" horiz-adv-x="1456" d="M10 0l629 1450h184l623 -1450h-229l-148 356h-688l-145 -356h-226zM406 1731q0 49 35.5 86.5t90.5 37.5q53 0 90 -35.5t37 -88.5q0 -51 -36.5 -87t-90.5 -36q-55 0 -90.5 38t-35.5 85zM453 535h542l-270 679zM803 1731q0 49 35.5 86.5t91.5 37.5q53 0 90 -35.5t37 -88.5 q0 -51 -37 -87t-90 -36q-55 0 -91 38t-36 85z" />
<glyph unicode="&#xc5;" horiz-adv-x="1456" d="M10 0l629 1450h184l623 -1450h-229l-148 356h-688l-145 -356h-226zM453 535h542l-270 679zM528 1745q0 88 59.5 145.5t145.5 57.5t146.5 -57.5t60.5 -143.5q0 -88 -60.5 -145.5t-146.5 -57.5q-43 0 -80 15.5t-64.5 42t-44 63.5t-16.5 80zM612 1745q0 -49 35 -83t86 -34 t87 34t36 85t-36 85t-87 34t-86 -35t-35 -86z" />
<glyph unicode="&#xc6;" horiz-adv-x="2078" d="M4 0l936 1450h1014v-178h-678v-434h635v-174h-635v-484h709v-180h-912v393h-579l-248 -393h-242zM600 569h473v703h-29z" />
<glyph unicode="&#xc7;" horiz-adv-x="1449" d="M102 727q0 170 58.5 310.5t162 239.5t245 154.5t306.5 55.5q74 0 150 -14.5t145.5 -43t127 -70.5t98.5 -97l-160 -123q-53 74 -150.5 122t-210.5 48q-127 0 -228 -46t-173 -126t-110.5 -185.5t-38.5 -224.5q0 -123 37.5 -229.5t108.5 -185.5t172 -124t226 -45 q123 0 223.5 49.5t165.5 143.5l162 -111q-82 -111 -213 -182.5t-311 -77.5l-70 -106q14 4 26.5 4h29.5q35 0 68.5 -8.5t61 -26.5t45 -49t17.5 -76q0 -53 -24.5 -89t-62.5 -57.5t-84 -29.5t-89 -8q-53 0 -110.5 12t-100.5 35l41 86q76 -35 158 -35q16 0 37.5 4t41 13.5 t33 25.5t13.5 43q0 45 -35 61.5t-76 16.5q-18 0 -40.5 -4t-43.5 -10l-41 40l105 160q-154 12 -281 72.5t-218 161t-142.5 234.5t-51.5 292z" />
<glyph unicode="&#xc8;" horiz-adv-x="1230" d="M176 0v1450h930v-178h-727v-434h684v-174h-684v-484h758v-180h-961zM360 1860h234l205 -295h-158z" />
<glyph unicode="&#xc9;" horiz-adv-x="1230" d="M176 0v1450h930v-178h-727v-434h684v-174h-684v-484h758v-180h-961zM537 1565l202 295h234l-281 -295h-155z" />
<glyph unicode="&#xca;" horiz-adv-x="1230" d="M176 0v1450h930v-178h-727v-434h684v-174h-684v-484h758v-180h-961zM311 1565l230 295h221l229 -295h-186l-154 202l-155 -202h-185z" />
<glyph unicode="&#xcb;" horiz-adv-x="1230" d="M176 0v1450h930v-178h-727v-434h684v-174h-684v-484h758v-180h-961zM324 1731q0 49 35.5 86.5t91.5 37.5q53 0 90 -35.5t37 -88.5q0 -51 -37 -87t-90 -36q-55 0 -91 38t-36 85zM721 1731q0 49 36 86.5t91 37.5q53 0 90 -35.5t37 -88.5q0 -51 -37 -87t-90 -36 q-55 0 -91 38t-36 85z" />
<glyph unicode="&#xcc;" horiz-adv-x="555" d="M-57 1860h233l205 -295h-158zM176 0v1450h203v-1450h-203z" />
<glyph unicode="&#xcd;" horiz-adv-x="555" d="M174 1565l203 295h233l-280 -295h-156zM176 0v1450h203v-1450h-203z" />
<glyph unicode="&#xce;" horiz-adv-x="555" d="M-66 1565l230 295h221l229 -295h-186l-154 202l-155 -202h-185zM176 0v1450h203v-1450h-203z" />
<glyph unicode="&#xcf;" horiz-adv-x="555" d="M-47 1731q0 49 36 86.5t91 37.5q53 0 90 -35.5t37 -88.5q0 -51 -37 -87t-90 -36q-55 0 -91 38t-36 85zM176 0v1450h203v-1450h-203zM350 1731q0 49 36 86.5t91 37.5q53 0 90 -35.5t37 -88.5q0 -51 -37 -87t-90 -36q-55 0 -91 38t-36 85z" />
<glyph unicode="&#xd0;" horiz-adv-x="1558" d="M27 686v143h141v621h528q139 0 273.5 -45t241 -135t171 -226.5t64.5 -318.5q0 -184 -69.5 -320.5t-180.5 -226.5t-247 -134t-269 -44h-512v686h-141zM373 184h239q143 0 257 39t194 109.5t123 170t43 222.5t-40 222.5t-116 170t-187.5 109.5t-252.5 39h-260v-437h485 v-143h-485v-502z" />
<glyph unicode="&#xd1;" horiz-adv-x="1581" d="M176 0v1450h264l758 -1159h4v1159h203v-1450h-256l-766 1184h-4v-1184h-203zM432 1581q8 45 21.5 87t38 76t60.5 54.5t89 20.5q39 0 79 -12.5t75 -28.5q41 -18 74.5 -31.5t62.5 -13.5q45 0 66.5 29.5t31.5 64.5h111q-8 -45 -21.5 -87t-38 -76t-61.5 -54.5t-88 -20.5 q-39 0 -80 13.5t-78 29.5q-37 18 -70.5 30.5t-62.5 12.5q-43 0 -64.5 -29.5t-31.5 -64.5h-113z" />
<glyph unicode="&#xd2;" horiz-adv-x="1738" d="M102 727q0 170 57.5 310.5t160 239.5t242.5 154.5t306 55.5t307.5 -55.5t244 -154.5t160.5 -239.5t58 -310.5q0 -168 -58 -308t-160.5 -241.5t-244 -158t-307.5 -56.5t-306 56.5t-242.5 158t-160 241.5t-57.5 308zM322 727q0 -121 38.5 -227.5t110.5 -185t172 -124 t225 -45.5t227.5 45.5t174 124t110.5 185t39 227.5q0 119 -39 224.5t-110.5 185.5t-173 126t-228.5 46q-125 0 -226 -46t-172 -126t-109.5 -185.5t-38.5 -224.5zM557 1860h234l204 -295h-157z" />
<glyph unicode="&#xd3;" horiz-adv-x="1738" d="M102 727q0 170 57.5 310.5t160 239.5t242.5 154.5t306 55.5t307.5 -55.5t244 -154.5t160.5 -239.5t58 -310.5q0 -168 -58 -308t-160.5 -241.5t-244 -158t-307.5 -56.5t-306 56.5t-242.5 158t-160 241.5t-57.5 308zM322 727q0 -121 38.5 -227.5t110.5 -185t172 -124 t225 -45.5t227.5 45.5t174 124t110.5 185t39 227.5q0 119 -39 224.5t-110.5 185.5t-173 126t-228.5 46q-125 0 -226 -46t-172 -126t-109.5 -185.5t-38.5 -224.5zM760 1565l203 295h233l-281 -295h-155z" />
<glyph unicode="&#xd4;" horiz-adv-x="1738" d="M102 727q0 170 57.5 310.5t160 239.5t242.5 154.5t306 55.5t307.5 -55.5t244 -154.5t160.5 -239.5t58 -310.5q0 -168 -58 -308t-160.5 -241.5t-244 -158t-307.5 -56.5t-306 56.5t-242.5 158t-160 241.5t-57.5 308zM322 727q0 -121 38.5 -227.5t110.5 -185t172 -124 t225 -45.5t227.5 45.5t174 124t110.5 185t39 227.5q0 119 -39 224.5t-110.5 185.5t-173 126t-228.5 46q-125 0 -226 -46t-172 -126t-109.5 -185.5t-38.5 -224.5zM528 1565l230 295h221l229 -295h-186l-154 202l-155 -202h-185z" />
<glyph unicode="&#xd5;" horiz-adv-x="1738" d="M102 727q0 170 57.5 310.5t160 239.5t242.5 154.5t306 55.5t307.5 -55.5t244 -154.5t160.5 -239.5t58 -310.5q0 -168 -58 -308t-160.5 -241.5t-244 -158t-307.5 -56.5t-306 56.5t-242.5 158t-160 241.5t-57.5 308zM322 727q0 -121 38.5 -227.5t110.5 -185t172 -124 t225 -45.5t227.5 45.5t174 124t110.5 185t39 227.5q0 119 -39 224.5t-110.5 185.5t-173 126t-228.5 46q-125 0 -226 -46t-172 -126t-109.5 -185.5t-38.5 -224.5zM514 1581q8 45 21.5 87t38 76t60.5 54.5t89 20.5q39 0 79 -12.5t75 -28.5q41 -18 74.5 -31.5t62.5 -13.5 q45 0 66.5 29.5t31.5 64.5h111q-8 -45 -21.5 -87t-38 -76t-61.5 -54.5t-88 -20.5q-39 0 -80 13.5t-78 29.5q-37 18 -70.5 30.5t-62.5 12.5q-43 0 -64.5 -29.5t-31.5 -64.5h-113z" />
<glyph unicode="&#xd6;" horiz-adv-x="1738" d="M102 727q0 170 57.5 310.5t160 239.5t242.5 154.5t306 55.5t307.5 -55.5t244 -154.5t160.5 -239.5t58 -310.5q0 -168 -58 -308t-160.5 -241.5t-244 -158t-307.5 -56.5t-306 56.5t-242.5 158t-160 241.5t-57.5 308zM322 727q0 -121 38.5 -227.5t110.5 -185t172 -124 t225 -45.5t227.5 45.5t174 124t110.5 185t39 227.5q0 119 -39 224.5t-110.5 185.5t-173 126t-228.5 46q-125 0 -226 -46t-172 -126t-109.5 -185.5t-38.5 -224.5zM543 1731q0 49 35.5 86.5t91.5 37.5q53 0 90 -35.5t37 -88.5q0 -51 -37 -87t-90 -36q-55 0 -91 38t-36 85z M940 1731q0 49 36 86.5t91 37.5q53 0 90 -35.5t37 -88.5q0 -51 -37 -87t-90 -36q-55 0 -91 38t-36 85z" />
<glyph unicode="&#xd7;" horiz-adv-x="1363" d="M213 268l352 348l-350 357l117 114l350 -350l348 350l117 -114l-348 -350l352 -355l-121 -118l-350 348l-348 -348z" />
<glyph unicode="&#xd8;" horiz-adv-x="1738" d="M102 727q0 170 57.5 310.5t160 239.5t242.5 154.5t306 55.5q135 0 255 -37t216 -109l166 179l88 -80l-161 -176q98 -100 152 -235.5t54 -301.5q0 -168 -58 -307t-160.5 -240.5t-244 -158t-307.5 -58.5q-143 0 -266 42t-221 120l-166 -178l-88 80l166 180 q-92 98 -141.5 231t-49.5 289zM315 727q0 -223 117 -371l780 842q-63 53 -150 83t-194 30q-129 0 -231 -46t-174 -125t-110 -185.5t-38 -227.5zM514 266q68 -59 156 -92t198 -33q127 0 230.5 46t176.5 125t111.5 185.5t38.5 229.5q0 111 -31.5 210t-95.5 177z" />
<glyph unicode="&#xd9;" horiz-adv-x="1458" d="M166 537v913h203v-901q0 -74 18.5 -146.5t60 -130t110.5 -92.5t171 -35q100 0 170 35t112 92.5t60.5 130t18.5 146.5v901h202v-913q0 -111 -33.5 -214.5t-103.5 -183.5t-176.5 -128t-249.5 -48t-249.5 48t-176.5 128t-103.5 183.5t-33.5 214.5zM381 1860h233l205 -295 h-157z" />
<glyph unicode="&#xda;" horiz-adv-x="1458" d="M166 537v913h203v-901q0 -74 18.5 -146.5t60 -130t110.5 -92.5t171 -35q100 0 170 35t112 92.5t60.5 130t18.5 146.5v901h202v-913q0 -111 -33.5 -214.5t-103.5 -183.5t-176.5 -128t-249.5 -48t-249.5 48t-176.5 128t-103.5 183.5t-33.5 214.5zM604 1565l203 295h233 l-280 -295h-156z" />
<glyph unicode="&#xdb;" horiz-adv-x="1458" d="M166 537v913h203v-901q0 -74 18.5 -146.5t60 -130t110.5 -92.5t171 -35q100 0 170 35t112 92.5t60.5 130t18.5 146.5v901h202v-913q0 -111 -33.5 -214.5t-103.5 -183.5t-176.5 -128t-249.5 -48t-249.5 48t-176.5 128t-103.5 183.5t-33.5 214.5zM385 1565l229 295h222 l229 -295h-186l-154 202l-156 -202h-184z" />
<glyph unicode="&#xdc;" horiz-adv-x="1458" d="M166 537v913h203v-901q0 -74 18.5 -146.5t60 -130t110.5 -92.5t171 -35q100 0 170 35t112 92.5t60.5 130t18.5 146.5v901h202v-913q0 -111 -33.5 -214.5t-103.5 -183.5t-176.5 -128t-249.5 -48t-249.5 48t-176.5 128t-103.5 183.5t-33.5 214.5zM403 1731q0 49 36 86.5 t91 37.5q53 0 90 -35.5t37 -88.5q0 -51 -36.5 -87t-90.5 -36q-55 0 -91 38t-36 85zM801 1731q0 49 35.5 86.5t91.5 37.5q53 0 90 -35.5t37 -88.5q0 -51 -37 -87t-90 -36q-55 0 -91 38t-36 85z" />
<glyph unicode="&#xdd;" horiz-adv-x="1277" d="M-6 1450h250l401 -655l404 655h235l-543 -823v-627h-204v627zM551 1565l203 295h233l-280 -295h-156z" />
<glyph unicode="&#xde;" d="M176 0v1450h203v-299h239q117 0 213.5 -24.5t164 -75t104.5 -126t37 -177.5q0 -111 -40 -189t-111 -127t-168 -71.5t-210 -22.5h-229v-338h-203zM379 512h209q74 0 136 12.5t107.5 40t70 71.5t24.5 109q0 63 -26 107.5t-70 72t-105 40t-133 12.5h-213v-465z" />
<glyph unicode="&#xdf;" horiz-adv-x="1253" d="M164 0v1075q0 92 23.5 182.5t77.5 160t143.5 112.5t220.5 43q88 0 163.5 -27.5t132 -78t88 -120t31.5 -155.5q0 -115 -60 -198t-167 -117v-5q78 -12 141.5 -46.5t107.5 -89t68.5 -126t24.5 -155.5q0 -106 -34.5 -194.5t-99 -152t-157 -98.5t-206.5 -35q-70 0 -146 17v162 q23 -6 58.5 -10.5t62.5 -4.5q147 0 235.5 86t88.5 238q0 80 -27 140.5t-75 99t-112.5 58t-140.5 19.5h-22v168h22q109 0 177.5 57.5t68.5 168.5q0 100 -62.5 164.5t-168.5 64.5q-82 0 -133.5 -32t-81 -81t-40 -108.5t-10.5 -114.5v-1067h-192z" />
<glyph unicode="&#xe0;" horiz-adv-x="1110" d="M94 274q0 111 59.5 175.5t156 98.5t217 44t243.5 10v27q0 109 -65.5 161t-174.5 52q-82 0 -154.5 -32t-121.5 -81l-102 123q72 68 175 106.5t222 38.5q104 0 181 -29.5t126 -80.5t73.5 -121t24.5 -150v-423q0 -49 3.5 -103.5t11.5 -89.5h-174q-16 70 -17 139h-6 q-53 -78 -134 -121t-192 -43q-57 0 -119.5 15.5t-113.5 50.5t-85 92t-34 141zM246 1450h231l205 -295h-158zM291 279q0 -43 17.5 -72t46 -47.5t63.5 -25.5t71 -7q135 0 208 81t73 204v51h-47q-72 0 -148.5 -6t-139 -24.5t-103.5 -55.5t-41 -98z" />
<glyph unicode="&#xe1;" horiz-adv-x="1110" d="M94 274q0 111 59.5 175.5t156 98.5t217 44t243.5 10v27q0 109 -65.5 161t-174.5 52q-82 0 -154.5 -32t-121.5 -81l-102 123q72 68 175 106.5t222 38.5q104 0 181 -29.5t126 -80.5t73.5 -121t24.5 -150v-423q0 -49 3.5 -103.5t11.5 -89.5h-174q-16 70 -17 139h-6 q-53 -78 -134 -121t-192 -43q-57 0 -119.5 15.5t-113.5 50.5t-85 92t-34 141zM291 279q0 -43 17.5 -72t46 -47.5t63.5 -25.5t71 -7q135 0 208 81t73 204v51h-47q-72 0 -148.5 -6t-139 -24.5t-103.5 -55.5t-41 -98zM465 1155l205 295h231l-278 -295h-158z" />
<glyph unicode="&#xe2;" horiz-adv-x="1110" d="M94 274q0 111 59.5 175.5t156 98.5t217 44t243.5 10v27q0 109 -65.5 161t-174.5 52q-82 0 -154.5 -32t-121.5 -81l-102 123q72 68 175 106.5t222 38.5q104 0 181 -29.5t126 -80.5t73.5 -121t24.5 -150v-423q0 -49 3.5 -103.5t11.5 -89.5h-174q-16 70 -17 139h-6 q-53 -78 -134 -121t-192 -43q-57 0 -119.5 15.5t-113.5 50.5t-85 92t-34 141zM209 1155l229 295h221l230 -295h-187l-153 203l-156 -203h-184zM291 279q0 -43 17.5 -72t46 -47.5t63.5 -25.5t71 -7q135 0 208 81t73 204v51h-47q-72 0 -148.5 -6t-139 -24.5t-103.5 -55.5 t-41 -98z" />
<glyph unicode="&#xe3;" horiz-adv-x="1110" d="M94 274q0 111 59.5 175.5t156 98.5t217 44t243.5 10v27q0 109 -65.5 161t-174.5 52q-82 0 -154.5 -32t-121.5 -81l-102 123q72 68 175 106.5t222 38.5q104 0 181 -29.5t126 -80.5t73.5 -121t24.5 -150v-423q0 -49 3.5 -103.5t11.5 -89.5h-174q-16 70 -17 139h-6 q-53 -78 -134 -121t-192 -43q-57 0 -119.5 15.5t-113.5 50.5t-85 92t-34 141zM195 1171q8 45 21 87t38 76t60.5 54.5t88.5 20.5q39 0 79 -12.5t75 -28.5q41 -18 75 -31.5t62 -13.5q45 0 66.5 29.5t32.5 64.5h110q-8 -45 -21.5 -87t-38 -75.5t-61.5 -54t-88 -20.5 q-39 0 -80 13t-77 30q-37 18 -71 30.5t-63 12.5q-43 0 -64.5 -30t-31.5 -65h-112zM291 279q0 -43 17.5 -72t46 -47.5t63.5 -25.5t71 -7q135 0 208 81t73 204v51h-47q-72 0 -148.5 -6t-139 -24.5t-103.5 -55.5t-41 -98z" />
<glyph unicode="&#xe4;" horiz-adv-x="1110" d="M94 274q0 111 59.5 175.5t156 98.5t217 44t243.5 10v27q0 109 -65.5 161t-174.5 52q-82 0 -154.5 -32t-121.5 -81l-102 123q72 68 175 106.5t222 38.5q104 0 181 -29.5t126 -80.5t73.5 -121t24.5 -150v-423q0 -49 3.5 -103.5t11.5 -89.5h-174q-16 70 -17 139h-6 q-53 -78 -134 -121t-192 -43q-57 0 -119.5 15.5t-113.5 50.5t-85 92t-34 141zM225 1321q0 49 36 87t91 38q53 0 90 -36t37 -89q0 -51 -36.5 -87t-90.5 -36q-55 0 -91 38t-36 85zM291 279q0 -43 17.5 -72t46 -47.5t63.5 -25.5t71 -7q135 0 208 81t73 204v51h-47 q-72 0 -148.5 -6t-139 -24.5t-103.5 -55.5t-41 -98zM623 1321q0 49 35.5 87t91.5 38q53 0 90 -36t37 -89q0 -51 -37 -87t-90 -36q-55 0 -91 38t-36 85z" />
<glyph unicode="&#xe5;" horiz-adv-x="1110" d="M94 274q0 111 59.5 175.5t156 98.5t217 44t243.5 10v27q0 109 -65.5 161t-174.5 52q-82 0 -154.5 -32t-121.5 -81l-102 123q72 68 175 106.5t222 38.5q104 0 181 -29.5t126 -80.5t73.5 -121t24.5 -150v-423q0 -49 3.5 -103.5t11.5 -89.5h-174q-16 70 -17 139h-6 q-53 -78 -134 -121t-192 -43q-57 0 -119.5 15.5t-113.5 50.5t-85 92t-34 141zM291 279q0 -43 17.5 -72t46 -47.5t63.5 -25.5t71 -7q135 0 208 81t73 204v51h-47q-72 0 -148.5 -6t-139 -24.5t-103.5 -55.5t-41 -98zM344 1335q0 88 59.5 145.5t145.5 57.5t146.5 -57.5 t60.5 -143.5q0 -88 -60.5 -145t-146.5 -57q-43 0 -80 15t-64.5 42t-44 63.5t-16.5 79.5zM430 1337q0 -49 36 -82.5t83 -33.5q49 0 85 32.5t36 83.5q0 49 -36 82t-85 33q-47 0 -83 -33t-36 -82z" />
<glyph unicode="&#xe6;" horiz-adv-x="1796" d="M94 248q0 106 49.5 170.5t138.5 98.5t212.5 44t275.5 10v23q0 137 -65.5 192.5t-174.5 55.5q-82 0 -154.5 -32t-121.5 -81l-102 123q72 68 175 106.5t222 38.5q82 0 141.5 -17t99 -44t63.5 -58.5t36 -60.5q57 80 141 130t213 50q104 0 188.5 -34.5t142.5 -100t90 -159 t32 -209.5v-33t-2 -33h-746q2 -61 26.5 -115.5t66.5 -94.5t96.5 -62.5t115.5 -22.5q96 0 165 43t110 105l129 -109q-76 -102 -177.5 -150.5t-226.5 -48.5q-129 0 -233.5 52.5t-161.5 148.5q-59 -111 -168.5 -155t-243.5 -44q-57 0 -119.5 13.5t-113.5 44t-85 83t-34 132.5z M291 272q0 -43 17.5 -70.5t45 -45t63.5 -24.5t75 -7q135 0 204.5 67.5t69.5 184.5v51h-49q-90 0 -168 -5t-135.5 -21.5t-90 -47t-32.5 -82.5zM946 571h557q0 57 -17.5 107.5t-50 87.5t-81.5 58.5t-113 21.5q-59 0 -111.5 -21.5t-92.5 -58.5t-64.5 -87t-26.5 -108z" />
<glyph unicode="&#xe7;" horiz-adv-x="1011" d="M102 485q0 115 39 209t108.5 162t165 104.5t206.5 36.5q102 0 203.5 -41t160.5 -118l-139 -113q-31 47 -92.5 79t-130.5 32q-76 0 -134.5 -29t-99.5 -77t-62.5 -111.5t-21.5 -133.5t21.5 -133t62.5 -111t100.5 -77t135.5 -29q74 0 134 29t99 78l129 -117 q-59 -68 -143 -108t-195 -44l-76 -114q14 4 26.5 4h29.5q35 0 68.5 -8.5t61 -26.5t45 -49t17.5 -76q0 -53 -24.5 -89t-62.5 -57.5t-84 -29.5t-89 -8q-53 0 -110.5 12t-100.5 35l41 86q76 -35 158 -35q16 0 37.5 4t41 13.5t33 25.5t13.5 43q0 45 -35 61.5t-76 16.5 q-18 0 -40.5 -4t-43.5 -10l-41 40l113 170q-98 12 -180 53.5t-142.5 107t-93.5 153.5t-33 194z" />
<glyph unicode="&#xe8;" horiz-adv-x="1173" d="M102 483q0 113 38 208t105.5 163t160 105.5t198.5 37.5t193.5 -34.5t148 -100t93 -158.5t32.5 -210v-33t-2 -33h-770q2 -61 27.5 -115.5t68.5 -94.5t99.5 -62.5t119.5 -22.5q98 0 170 43t113 105l135 -109q-78 -102 -183.5 -150.5t-234.5 -48.5q-111 0 -205 37 t-161.5 103.5t-106.5 161t-39 208.5zM274 1450h232l205 -295h-158zM299 571h578q-2 57 -19.5 107.5t-51.5 87.5t-84 58.5t-118 21.5q-61 0 -115.5 -21.5t-94.5 -58.5t-65.5 -87t-29.5 -108z" />
<glyph unicode="&#xe9;" horiz-adv-x="1173" d="M102 483q0 113 38 208t105.5 163t160 105.5t198.5 37.5t193.5 -34.5t148 -100t93 -158.5t32.5 -210v-33t-2 -33h-770q2 -61 27.5 -115.5t68.5 -94.5t99.5 -62.5t119.5 -22.5q98 0 170 43t113 105l135 -109q-78 -102 -183.5 -150.5t-234.5 -48.5q-111 0 -205 37 t-161.5 103.5t-106.5 161t-39 208.5zM299 571h578q-2 57 -19.5 107.5t-51.5 87.5t-84 58.5t-118 21.5q-61 0 -115.5 -21.5t-94.5 -58.5t-65.5 -87t-29.5 -108zM502 1155l205 295h231l-279 -295h-157z" />
<glyph unicode="&#xea;" horiz-adv-x="1173" d="M102 483q0 113 38 208t105.5 163t160 105.5t198.5 37.5t193.5 -34.5t148 -100t93 -158.5t32.5 -210v-33t-2 -33h-770q2 -61 27.5 -115.5t68.5 -94.5t99.5 -62.5t119.5 -22.5q98 0 170 43t113 105l135 -109q-78 -102 -183.5 -150.5t-234.5 -48.5q-111 0 -205 37 t-161.5 103.5t-106.5 161t-39 208.5zM276 1155l230 295h221l229 -295h-186l-154 203l-155 -203h-185zM299 571h578q-2 57 -19.5 107.5t-51.5 87.5t-84 58.5t-118 21.5q-61 0 -115.5 -21.5t-94.5 -58.5t-65.5 -87t-29.5 -108z" />
<glyph unicode="&#xeb;" horiz-adv-x="1173" d="M102 483q0 113 38 208t105.5 163t160 105.5t198.5 37.5t193.5 -34.5t148 -100t93 -158.5t32.5 -210v-33t-2 -33h-770q2 -61 27.5 -115.5t68.5 -94.5t99.5 -62.5t119.5 -22.5q98 0 170 43t113 105l135 -109q-78 -102 -183.5 -150.5t-234.5 -48.5q-111 0 -205 37 t-161.5 103.5t-106.5 161t-39 208.5zM289 1321q0 49 35.5 87t91.5 38q53 0 90 -36t37 -89q0 -51 -37 -87t-90 -36q-55 0 -91 38t-36 85zM299 571h578q-2 57 -19.5 107.5t-51.5 87.5t-84 58.5t-118 21.5q-61 0 -115.5 -21.5t-94.5 -58.5t-65.5 -87t-29.5 -108zM686 1321 q0 49 36 87t91 38q53 0 90 -36t37 -89q0 -51 -37 -87t-90 -36q-55 0 -91 38t-36 85z" />
<glyph unicode="&#xec;" horiz-adv-x="530" d="M-74 1450h232l204 -295h-157zM168 0v971h192v-971h-192z" />
<glyph unicode="&#xed;" horiz-adv-x="530" d="M168 0v971h192v-971h-192zM168 1155l205 295h231l-278 -295h-158z" />
<glyph unicode="&#xee;" horiz-adv-x="530" d="M-74 1155l230 295h221l229 -295h-186l-154 203l-155 -203h-185zM168 0v971h192v-971h-192z" />
<glyph unicode="&#xef;" horiz-adv-x="530" d="M-59 1321q0 49 35.5 87t91.5 38q53 0 90 -36t37 -89q0 -51 -37 -87t-90 -36q-55 0 -91 38t-36 85zM168 0v971h192v-971h-192zM338 1321q0 49 36 87t91 38q53 0 90 -36t37 -89q0 -51 -37 -87t-90 -36q-55 0 -91 38t-36 85z" />
<glyph unicode="&#xf0;" horiz-adv-x="1249" d="M94 485q0 113 39 207t108.5 162t164 105.5t202.5 37.5q78 0 142.5 -23.5t123.5 -76.5l5 4q-53 102 -127 198.5t-162 170.5l-225 -109l-99 96l226 109q-41 39 -90.5 76t-92.5 67l158 97q53 -41 104.5 -84t85.5 -76l222 108l106 -94l-225 -110q78 -80 147.5 -172.5 t120.5 -195.5t81 -215t30 -230q0 -109 -31 -211.5t-94.5 -180t-162.5 -125t-235 -47.5q-113 0 -209 38t-165.5 105.5t-108.5 162t-39 206.5zM291 485q0 -70 21.5 -132t62.5 -110t102.5 -77t138.5 -29q78 0 138.5 29t101.5 77t62.5 110.5t21.5 131.5q0 70 -21.5 132.5 t-62.5 110.5t-101.5 77t-138.5 29t-139 -29t-102 -77t-62.5 -110.5t-21.5 -132.5z" />
<glyph unicode="&#xf1;" horiz-adv-x="1191" d="M158 971h182q4 -37 6 -83t2 -77h6q18 39 50 73t73 59.5t90 39.5t103 14q94 0 161.5 -31.5t112.5 -85t66.5 -125t21.5 -153.5v-602h-192v539q0 59 -9.5 112.5t-34 94t-67.5 65.5t-111 25q-115 0 -187.5 -87t-72.5 -233v-516h-192v762q0 39 -2 100.5t-6 108.5zM248 1171 q8 45 21.5 87t38 76t60 54.5t89.5 20.5q39 0 78.5 -12.5t74.5 -28.5q41 -18 75 -31.5t63 -13.5q45 0 66.5 29.5t31.5 64.5h110q-8 -45 -21 -87t-38 -75.5t-61.5 -54t-87.5 -20.5q-39 0 -80 13t-78 30q-37 18 -71 30.5t-62 12.5q-43 0 -64.5 -30t-32.5 -65h-112z" />
<glyph unicode="&#xf2;" horiz-adv-x="1249" d="M102 487q0 113 40 206t110 161t166 105.5t207 37.5t207 -37.5t166.5 -105.5t110.5 -161t40 -206t-40 -207t-110.5 -162.5t-167 -106.5t-206.5 -38q-111 0 -207 38t-166 106.5t-110 163t-40 206.5zM301 487q0 -70 21.5 -133t62.5 -112t101.5 -78t138.5 -29t138 29t101 78 t62.5 112t21.5 133t-21.5 133.5t-62.5 111.5t-101.5 77t-137.5 29q-78 0 -138.5 -29t-101.5 -77t-62.5 -111.5t-21.5 -133.5zM301 1450h231l205 -295h-157z" />
<glyph unicode="&#xf3;" horiz-adv-x="1249" d="M102 487q0 113 40 206t110 161t166 105.5t207 37.5t207 -37.5t166.5 -105.5t110.5 -161t40 -206t-40 -207t-110.5 -162.5t-167 -106.5t-206.5 -38q-111 0 -207 38t-166 106.5t-110 163t-40 206.5zM301 487q0 -70 21.5 -133t62.5 -112t101.5 -78t138.5 -29t138 29t101 78 t62.5 112t21.5 133t-21.5 133.5t-62.5 111.5t-101.5 77t-137.5 29q-78 0 -138.5 -29t-101.5 -77t-62.5 -111.5t-21.5 -133.5zM508 1155l205 295h231l-278 -295h-158z" />
<glyph unicode="&#xf4;" horiz-adv-x="1249" d="M102 487q0 113 40 206t110 161t166 105.5t207 37.5t207 -37.5t166.5 -105.5t110.5 -161t40 -206t-40 -207t-110.5 -162.5t-167 -106.5t-206.5 -38q-111 0 -207 38t-166 106.5t-110 163t-40 206.5zM287 1155l229 295h221l230 -295h-187l-153 203l-156 -203h-184zM301 487 q0 -70 21.5 -133t62.5 -112t101.5 -78t138.5 -29t138 29t101 78t62.5 112t21.5 133t-21.5 133.5t-62.5 111.5t-101.5 77t-137.5 29q-78 0 -138.5 -29t-101.5 -77t-62.5 -111.5t-21.5 -133.5z" />
<glyph unicode="&#xf5;" horiz-adv-x="1249" d="M102 487q0 113 40 206t110 161t166 105.5t207 37.5t207 -37.5t166.5 -105.5t110.5 -161t40 -206t-40 -207t-110.5 -162.5t-167 -106.5t-206.5 -38q-111 0 -207 38t-166 106.5t-110 163t-40 206.5zM272 1171q8 45 21.5 87t38 76t60.5 54.5t89 20.5q39 0 79 -12.5t75 -28.5 q41 -18 74.5 -31.5t62.5 -13.5q45 0 66.5 29.5t31.5 64.5h111q-8 -45 -21.5 -87t-38 -75.5t-61.5 -54t-88 -20.5q-39 0 -80 13t-78 30q-37 18 -70.5 30.5t-62.5 12.5q-43 0 -64.5 -30t-31.5 -65h-113zM301 487q0 -70 21.5 -133t62.5 -112t101.5 -78t138.5 -29t138 29t101 78 t62.5 112t21.5 133t-21.5 133.5t-62.5 111.5t-101.5 77t-137.5 29q-78 0 -138.5 -29t-101.5 -77t-62.5 -111.5t-21.5 -133.5z" />
<glyph unicode="&#xf6;" horiz-adv-x="1249" d="M102 487q0 113 40 206t110 161t166 105.5t207 37.5t207 -37.5t166.5 -105.5t110.5 -161t40 -206t-40 -207t-110.5 -162.5t-167 -106.5t-206.5 -38q-111 0 -207 38t-166 106.5t-110 163t-40 206.5zM301 487q0 -70 21.5 -133t62.5 -112t101.5 -78t138.5 -29t138 29t101 78 t62.5 112t21.5 133t-21.5 133.5t-62.5 111.5t-101.5 77t-137.5 29q-78 0 -138.5 -29t-101.5 -77t-62.5 -111.5t-21.5 -133.5zM301 1321q0 49 36 87t91 38q53 0 90 -36t37 -89q0 -51 -37 -87t-90 -36q-55 0 -91 38t-36 85zM698 1321q0 49 36 87t91 38q53 0 90 -36t37 -89 q0 -51 -36.5 -87t-90.5 -36q-55 0 -91 38t-36 85z" />
<glyph unicode="&#xf7;" horiz-adv-x="1363" d="M143 537v168h1078v-168h-1078zM549 270q0 53 38 93t95 40t95 -40t38 -93t-38 -93t-95 -40t-95 40t-38 93zM549 961q0 53 38 93t95 40t95 -40t38 -93t-38 -93.5t-95 -40.5t-95 40t-38 94z" />
<glyph unicode="&#xf8;" horiz-adv-x="1249" d="M86 10l135 140q-57 66 -88 150.5t-31 184.5q0 113 40 207t110 162t166 105.5t207 37.5q190 0 323 -104l139 143l76 -71l-137 -144q57 -66 90 -150.5t33 -185.5q0 -113 -40 -207t-110.5 -161.5t-167 -105.5t-206.5 -38q-96 0 -178 28t-148 77l-139 -141zM295 485 q0 -57 14.5 -112.5t42.5 -93.5l479 493q-37 35 -92 53.5t-114 18.5q-80 0 -141.5 -30t-103.5 -80t-63.5 -114.5t-21.5 -134.5zM416 201q84 -72 207 -72q82 0 144 29.5t104 80t63.5 115t21.5 133.5q0 55 -15 110.5t-44 94.5z" />
<glyph unicode="&#xf9;" horiz-adv-x="1191" d="M158 369v602h192v-537q0 -59 9.5 -113.5t34 -95.5t67.5 -65.5t110 -24.5q117 0 188.5 87t71.5 233v516h193v-762q0 -39 2 -100.5t6 -108.5h-182q-4 37 -6 83t-2 77h-4q-37 -78 -124 -132.5t-194 -54.5q-94 0 -162.5 31t-112.5 85t-65.5 126t-21.5 154zM268 1450h232 l205 -295h-158z" />
<glyph unicode="&#xfa;" horiz-adv-x="1191" d="M158 369v602h192v-537q0 -59 9.5 -113.5t34 -95.5t67.5 -65.5t110 -24.5q117 0 188.5 87t71.5 233v516h193v-762q0 -39 2 -100.5t6 -108.5h-182q-4 37 -6 83t-2 77h-4q-37 -78 -124 -132.5t-194 -54.5q-94 0 -162.5 31t-112.5 85t-65.5 126t-21.5 154zM489 1155l205 295 h232l-279 -295h-158z" />
<glyph unicode="&#xfb;" horiz-adv-x="1191" d="M158 369v602h192v-537q0 -59 9.5 -113.5t34 -95.5t67.5 -65.5t110 -24.5q117 0 188.5 87t71.5 233v516h193v-762q0 -39 2 -100.5t6 -108.5h-182q-4 37 -6 83t-2 77h-4q-37 -78 -124 -132.5t-194 -54.5q-94 0 -162.5 31t-112.5 85t-65.5 126t-21.5 154zM256 1155l229 295 h222l229 -295h-186l-154 203l-156 -203h-184z" />
<glyph unicode="&#xfc;" horiz-adv-x="1191" d="M158 369v602h192v-537q0 -59 9.5 -113.5t34 -95.5t67.5 -65.5t110 -24.5q117 0 188.5 87t71.5 233v516h193v-762q0 -39 2 -100.5t6 -108.5h-182q-4 37 -6 83t-2 77h-4q-37 -78 -124 -132.5t-194 -54.5q-94 0 -162.5 31t-112.5 85t-65.5 126t-21.5 154zM268 1321 q0 49 36 87t91 38q53 0 90 -36t37 -89q0 -51 -36.5 -87t-90.5 -36q-55 0 -91 38t-36 85zM666 1321q0 49 35.5 87t91.5 38q53 0 90 -36t37 -89q0 -51 -37 -87t-90 -36q-55 0 -91 38t-36 85z" />
<glyph unicode="&#xfd;" horiz-adv-x="1032" d="M18 971h215l302 -762h4l268 762h205l-471 -1200q-25 -61 -53.5 -109.5t-67.5 -82.5t-91.5 -52.5t-123.5 -18.5q-31 0 -62.5 3.5t-64.5 11.5l18 170q49 -16 97 -17q76 0 112.5 42t67.5 120l61 162zM428 1155l205 295h231l-278 -295h-158z" />
<glyph unicode="&#xfe;" horiz-adv-x="1302" d="M168 -492v2040h190v-729h7q45 78 135 128t211 50q109 0 197.5 -38.5t153 -108.5t99.5 -163t35 -200q0 -106 -35 -200t-98.5 -164t-153.5 -110t-202 -40q-104 0 -196.5 45t-145.5 127h-7v-637h-190zM346 485q0 -70 23.5 -133t66.5 -111t103.5 -77t134.5 -29q80 0 140 30 t101 79t61.5 112t20.5 131t-20.5 131.5t-61.5 112.5t-101 78t-140 29q-74 0 -134.5 -29t-103.5 -78t-66.5 -112.5t-23.5 -133.5z" />
<glyph unicode="&#xff;" horiz-adv-x="1032" d="M18 971h215l302 -762h4l268 762h205l-471 -1200q-25 -61 -53.5 -109.5t-67.5 -82.5t-91.5 -52.5t-123.5 -18.5q-31 0 -62.5 3.5t-64.5 11.5l18 170q49 -16 97 -17q76 0 112.5 42t67.5 120l61 162zM207 1321q0 49 36 87t91 38q53 0 90 -36t37 -89q0 -51 -37 -87t-90 -36 q-55 0 -91 38t-36 85zM604 1321q0 49 36 87t91 38q53 0 90 -36t37 -89q0 -51 -37 -87t-90 -36q-55 0 -91 38t-36 85z" />
<glyph unicode="&#x152;" horiz-adv-x="2054" d="M102 725q0 193 70 330t182.5 225t251.5 129t279 41h1044v-178h-678v-434h635v-174h-635v-484h709v-180h-1075q-139 0 -278.5 44t-252 133t-182.5 225.5t-70 322.5zM319 725q0 -129 45.5 -230.5t126 -171t192.5 -106.5t243 -37h123v1092h-123q-131 0 -243 -35 t-192.5 -104.5t-126 -171t-45.5 -236.5z" />
<glyph unicode="&#x153;" horiz-adv-x="1996" d="M102 487q0 113 39 206t107.5 161t164 105.5t205.5 37.5q135 0 243 -57t171 -154q63 94 165 152.5t233 58.5q109 0 194.5 -34.5t146 -100t93 -159t32.5 -209.5v-33t-2 -33h-772q4 -63 30 -116.5t69 -93.5t99 -62.5t120 -22.5q100 0 170.5 43t111.5 105l133 -109 q-154 -199 -417 -199q-135 0 -240.5 56.5t-167.5 152.5q-63 -96 -169.5 -152.5t-242.5 -56.5q-111 0 -206 38t-163.5 106.5t-107.5 163t-39 206.5zM299 487q0 -70 21.5 -133t62.5 -112t102.5 -78t139.5 -29t138 29t101 78t62.5 112t21.5 133t-21.5 133.5t-62.5 111.5 t-101.5 77t-137.5 29q-78 0 -139.5 -29t-102.5 -77t-62.5 -111.5t-21.5 -133.5zM1124 571h580q-2 57 -19.5 107.5t-52.5 87.5t-85 58.5t-117 21.5q-61 0 -115.5 -21.5t-94.5 -58.5t-66 -87t-30 -108z" />
<glyph unicode="&#x178;" horiz-adv-x="1277" d="M-6 1450h250l401 -655l404 655h235l-543 -823v-627h-204v627zM319 1731q0 49 36 86.5t91 37.5q53 0 90 -35.5t37 -88.5q0 -51 -36.5 -87t-90.5 -36q-55 0 -91 38t-36 85zM717 1731q0 49 35.5 86.5t91.5 37.5q53 0 90 -35.5t37 -88.5q0 -51 -37 -87t-90 -36q-55 0 -91 38 t-36 85z" />
<glyph unicode="&#x2c6;" horiz-adv-x="512" d="M-84 1155l229 295h222l229 -295h-186l-154 203l-156 -203h-184z" />
<glyph unicode="&#x2dc;" horiz-adv-x="512" d="M-98 1171q8 45 21.5 87t38 76t60 54.5t89.5 20.5q39 0 78.5 -12.5t74.5 -28.5q41 -18 75 -31.5t62 -13.5q45 0 66.5 29.5t32.5 64.5h110q-8 -45 -21.5 -87t-38 -75.5t-61 -54t-88.5 -20.5q-39 0 -79.5 13t-77.5 30q-37 18 -71 30.5t-62 12.5q-43 0 -64.5 -30t-32.5 -65 h-112z" />
<glyph unicode="&#x2000;" horiz-adv-x="974" />
<glyph unicode="&#x2001;" horiz-adv-x="1948" />
<glyph unicode="&#x2002;" horiz-adv-x="974" />
<glyph unicode="&#x2003;" horiz-adv-x="1948" />
<glyph unicode="&#x2004;" horiz-adv-x="649" />
<glyph unicode="&#x2005;" horiz-adv-x="487" />
<glyph unicode="&#x2006;" horiz-adv-x="324" />
<glyph unicode="&#x2007;" horiz-adv-x="324" />
<glyph unicode="&#x2008;" horiz-adv-x="243" />
<glyph unicode="&#x2009;" horiz-adv-x="389" />
<glyph unicode="&#x200a;" horiz-adv-x="108" />
<glyph unicode="&#x2010;" horiz-adv-x="655" d="M90 418v164h475v-164h-475z" />
<glyph unicode="&#x2011;" horiz-adv-x="655" d="M90 418v164h475v-164h-475z" />
<glyph unicode="&#x2012;" horiz-adv-x="655" d="M90 418v164h475v-164h-475z" />
<glyph unicode="&#x2013;" horiz-adv-x="819" d="M61 424v154h697v-154h-697z" />
<glyph unicode="&#x2014;" horiz-adv-x="1228" d="M61 424v154h1106v-154h-1106z" />
<glyph unicode="&#x2018;" horiz-adv-x="503" d="M86 938l170 512h162l-139 -512h-193z" />
<glyph unicode="&#x2019;" horiz-adv-x="503" d="M86 938l141 512h191l-170 -512h-162z" />
<glyph unicode="&#x201a;" horiz-adv-x="503" d="M86 -272l141 512h191l-170 -512h-162z" />
<glyph unicode="&#x201c;" horiz-adv-x="872" d="M86 938l170 512h162l-139 -512h-193zM455 938l170 512h161l-139 -512h-192z" />
<glyph unicode="&#x201d;" horiz-adv-x="872" d="M86 938l141 512h191l-170 -512h-162zM455 938l141 512h190l-170 -512h-161z" />
<glyph unicode="&#x201e;" horiz-adv-x="872" d="M86 -272l141 512h191l-170 -512h-162zM455 -272l141 512h190l-170 -512h-161z" />
<glyph unicode="&#x2022;" horiz-adv-x="1024" d="M150 725q0 76 28.5 141.5t77.5 114.5t114.5 77.5t141.5 28.5t141.5 -28.5t114.5 -77.5t77.5 -114.5t28.5 -141.5t-28.5 -141.5t-77.5 -114.5t-114.5 -78t-141.5 -29t-141.5 29t-114.5 78t-77.5 114.5t-28.5 141.5z" />
<glyph unicode="&#x2026;" horiz-adv-x="2048" d="M178 143q0 66 48 113t116 47q66 0 115 -45t49 -111t-48 -112.5t-116 -46.5q-33 0 -62.5 12t-52 32.5t-36 49t-13.5 61.5zM860 143q0 66 48 113t116 47q66 0 115 -45t49 -111t-48 -112.5t-116 -46.5q-33 0 -62.5 12t-52 32.5t-36 49t-13.5 61.5zM1542 143q0 66 48 113 t116 47q66 0 115 -45t49 -111t-48 -112.5t-116 -46.5q-33 0 -62.5 12t-52 32.5t-36 49t-13.5 61.5z" />
<glyph unicode="&#x202f;" horiz-adv-x="389" />
<glyph unicode="&#x2039;" horiz-adv-x="610" d="M82 500l299 444l127 -86l-236 -358l236 -359l-127 -88z" />
<glyph unicode="&#x203a;" horiz-adv-x="610" d="M102 858l127 86l299 -446l-299 -445l-125 88l236 357z" />
<glyph unicode="&#x205f;" horiz-adv-x="487" />
<glyph unicode="&#x20ac;" d="M29 469l49 145h96q-2 23 -3 50.5t-1 52.5q0 29 1 61.5t5 55.5h-143l51 145h115q29 119 87 213t139 159.5t183.5 100.5t218.5 35q92 0 175 -18.5t141 -49.5l-64 -164q-51 29 -117.5 44.5t-144.5 15.5q-76 0 -142.5 -23.5t-121.5 -66.5t-95 -105.5t-61 -140.5h602l-47 -145 h-583q-4 -27 -6.5 -56.5t-2.5 -60.5q0 -23 1 -51.5t6 -51.5h524l-47 -145h-455q14 -74 52 -134.5t94.5 -104.5t127 -68.5t152.5 -24.5q80 0 147.5 17.5t127.5 56.5l71 -156q-66 -43 -157 -67.5t-201 -24.5q-133 0 -236.5 42t-180.5 111.5t-125 161t-68 191.5h-164z" />
<glyph unicode="&#x2122;" horiz-adv-x="2048" d="M115 1303v147h690v-147h-260v-697h-166v697h-264zM975 606v844h242l231 -598l231 598h240v-844h-168v629h-4l-244 -629h-112l-246 629h-4v-629h-166z" />
<glyph unicode="&#xe000;" horiz-adv-x="972" d="M0 0v973h973v-973h-973z" />
</font>
</defs>
</svg>
